SplineFontDB: 3.0
FontName: IranianSans-thin
FullName: Iranian Sans Thin
FamilyName: Iranian Sans 
Weight: Thin
Copyright: this is spcial version  for use in font-store.ir
Version: 5.0.0 build 1/7/1393
ItalicAngle: 0
UnderlinePosition: -100
UnderlineWidth: 100
Ascent: 1556
Descent: 492
InvalidEm: 0
sfntRevision: 0x00010000
LayerCount: 2
Layer: 0 0 "Back" 1
Layer: 1 0 "Fore" 0
XUID: [1021 107 -802105209 1359]
FSType: 0
OS2Version: 0
OS2_WeightWidthSlopeOnly: 0
OS2_UseTypoMetrics: 1
CreationTime: 1159092060
ModificationTime: 1415485392
PfmFamily: 81
TTFWeight: 100
TTFWidth: 5
LineGap: 0
VLineGap: 0
Panose: 2 0 5 3 0 0 0 0 0 0
OS2TypoAscent: 1556
OS2TypoAOffset: 0
OS2TypoDescent: -492
OS2TypoDOffset: 0
OS2TypoLinegap: 0
OS2WinAscent: 1901
OS2WinAOffset: 0
OS2WinDescent: 483
OS2WinDOffset: 0
HheadAscent: 1901
HheadAOffset: 0
HheadDescent: -483
HheadDOffset: 0
OS2SubXSize: 1331
OS2SubYSize: 1433
OS2SubXOff: -212
OS2SubYOff: 286
OS2SupXSize: 1331
OS2SupYSize: 1433
OS2SupXOff: 730
OS2SupYOff: 983
OS2StrikeYSize: 102
OS2StrikeYPos: 530
OS2CapHeight: 0
OS2XHeight: 0
OS2Vendor: 'RITA'
OS2CodePages: 00000040.20080000
OS2UnicodeRanges: 80002003.80002042.00000008.00000000
Lookup: 4 1 0 "'ccmp' Glyph Composition/Decomposition in Arabic lookup 0" { "'ccmp' Glyph Composition/Decomposition in Arabic lookup 0 subtable"  } ['ccmp' ('arab' <'ARA ' 'dflt' > ) ]
Lookup: 4 1 1 "'rlig' Required Ligatures in Arabic lookup 1" { "'rlig' Required Ligatures in Arabic lookup 1 subtable"  } ['rlig' ('arab' <'dflt' > ) ]
Lookup: 4 9 1 "'rlig' Required Ligatures in Arabic lookup 2" { "'rlig' Required Ligatures in Arabic lookup 2 subtable"  } ['rlig' ('arab' <'ARA ' 'dflt' > ) ]
Lookup: 1 9 0 "'init' Initial Forms in Arabic lookup 3" { "'init' Initial Forms in Arabic lookup 3 subtable"  } ['init' ('arab' <'ARA ' 'dflt' > ) ]
Lookup: 1 9 0 "'medi' Medial Forms in Arabic lookup 4" { "'medi' Medial Forms in Arabic lookup 4 subtable"  } ['medi' ('arab' <'ARA ' 'dflt' > ) ]

StartChar: .notdef
Encoding: 65536 -1 0
Width: 928
VWidth: 1524
GlyphClass: 2
Flags: HMW
LayerCount: 2
Back
Fore
SplineSet
125 1023 m 1
 125 -329 l 1
 826 -329 l 1
 826 1023 l 1
 125 1023 l 1
115 1034 m 1
 835 1034 l 1
 835 -337 l 1
 115 -337 l 1
 115 1034 l 1
EndSplineSet
EndChar

StartChar: exclam
Encoding: 33 33 4
Width: 609
VWidth: 1524
GlyphClass: 2
Flags: HMW
LayerCount: 2
Back
Fore
SplineSet
277 1072 m 1
 356 1072 l 1
 356 601 l 1
 344 361 l 1
 290 361 l 1
 277 601 l 1
 277 1072 l 1
277 -15 m 1
 277 103 l 1
 356 103 l 1
 356 -15 l 1
 277 -15 l 1
EndSplineSet
Substitution2: "'calt' Contextual Alternates in Arabic lookup 9 subtable" exclam.fa
EndChar

StartChar: uni0022
Encoding: 34 34 5
Width: 703
VWidth: 1524
GlyphClass: 2
Flags: HMW
LayerCount: 2
Back
Fore
SplineSet
484 719 m 1
 484 1072 l 1
 538 1072 l 1
 538 719 l 1
 484 719 l 1
190 719 m 1
 190 1072 l 1
 242 1072 l 1
 242 719 l 1
 190 719 l 1
EndSplineSet
EndChar

StartChar: uni0023
Encoding: 35 35 6
Width: 1309
VWidth: 1524
GlyphClass: 2
Flags: HMW
LayerCount: 2
Back
Fore
SplineSet
908 690 m 1
 823 349 l 1
 1084 349 l 1
 1084 309 l 1
 813 309 l 1
 732 -55 l 1
 691 -55 l 1
 771 309 l 1
 457 309 l 1
 378 -55 l 1
 335 -55 l 1
 418 309 l 1
 158 309 l 1
 158 349 l 1
 425 349 l 1
 512 690 l 1
 247 690 l 1
 247 730 l 1
 521 730 l 1
 601 1054 l 1
 645 1054 l 1
 562 730 l 1
 876 730 l 1
 957 1054 l 1
 998 1054 l 1
 918 730 l 1
 1174 730 l 1
 1174 690 l 1
 908 690 l 1
865 690 m 1
 554 690 l 1
 468 349 l 1
 782 349 l 1
 865 690 l 1
EndSplineSet
EndChar

StartChar: uni0024
Encoding: 36 36 7
Width: 986
VWidth: 1524
GlyphClass: 2
Flags: HMW
LayerCount: 2
Back
Fore
SplineSet
451 507 m 2
 498 499 l 1
 498 499 l 1
 511 496 l 1
 705 462 840 420 840 238 c 0
 840 40 705 -42 513 -55 c 1
 497 -57 l 1
 497 -55 l 1
 457 -55 l 1
 359 -50 260 -17 168 42 c 1
 168 88 l 1
 262 40 357 17 458 16 c 2
 495 16 l 1
 495 14 l 1
 539 19 l 2
 689 37 776 107 776 228 c 0
 776 368 662 413 543 436 c 2
 498 444 l 1
 498 445 l 1
 482 449 l 1
 293 482 168 520 168 697 c 0
 168 860 295 929 480 939 c 0
 489 940 496 942 505 942 c 2
 515 942 l 1
 611 937 696 924 769 903 c 1
 769 857 l 1
 695 887 618 903 536 908 c 2
 498 909 l 1
 498 912 l 1
 454 908 l 2
 311 893 231 823 231 704 c 0
 231 568 336 527 451 507 c 2
498 444 m 1
 495 444 l 1
 495 16 l 1
 498 16 l 1
 498 444 l 1
498 499 m 1
 498 909 l 1
 495 909 l 1
 495 500 l 1
 498 499 l 1
EndSplineSet
EndChar

StartChar: uni0025
Encoding: 37 37 8
Width: 1488
VWidth: 1524
GlyphClass: 2
Flags: HMW
LayerCount: 2
Back
Fore
SplineSet
583 816 m 0
 583 650 503 538 351 538 c 0
 200 538 123 650 123 816 c 0
 123 979 203 1094 351 1094 c 0
 501 1094 583 981 583 816 c 0
400 -78 m 1
 1082 1094 l 1
 1112 1094 l 1
 431 -78 l 1
 400 -78 l 1
351 557 m 0
 486 557 537 688 537 815 c 0
 537 942 487 1074 352 1074 c 0
 216 1074 167 944 167 816 c 0
 167 688 214 557 351 557 c 0
1157 -78 m 2
 1156 -78 l 2
 1007 -78 929 52 929 241 c 0
 929 407 1008 518 1159 518 c 0
 1309 518 1387 405 1387 239 c 0
 1387 49 1308 -78 1157 -78 c 2
1158 -58 m 0
 1292 -58 1343 94 1343 240 c 0
 1343 367 1294 499 1159 499 c 0
 1023 499 974 368 974 240 c 0
 974 104 1006 8 1079 -39 c 0
 1103 -52 1129 -58 1158 -58 c 0
EndSplineSet
EndChar

StartChar: uni0026
Encoding: 38 38 9
Width: 1216
VWidth: 1524
GlyphClass: 2
Flags: HMW
LayerCount: 2
Back
Fore
SplineSet
386 629 m 1
 358 602 l 1
 259 515 207 423 207 326 c 0
 207 107 354 -32 549 -32 c 0
 651 -32 745 20 826 120 c 1
 858 146 l 1
 386 629 l 1
767 1050 m 1
 767 1000 l 1
 692 1034 627 1051 567 1051 c 0
 453 1051 338 984 338 870 c 0
 338 827 347 789 365 756 c 0
 383 723 418 683 467 632 c 2
 899 189 l 1
 926 232 l 2
 986 325 1021 424 1030 531 c 1
 1094 531 l 1
 1074 411 1026 301 943 192 c 1
 923 164 l 1
 1100 -55 l 1
 1014 -55 l 1
 890 115 l 1
 873 103 l 1
 873 102 l 1
 764 -17 650 -76 529 -77 c 0
 528 -77 527 -77 526 -77 c 0
 304 -75 136 68 136 303 c 0
 136 423 198 530 329 626 c 2
 361 650 l 1
 337 682 l 2
 290 743 268 802 268 867 c 0
 268 1001 389 1094 535 1094 c 0
 611 1094 691 1078 767 1050 c 1
EndSplineSet
EndChar

StartChar: uni0027
Encoding: 39 39 10
Width: 406
VWidth: 1524
GlyphClass: 2
Flags: HMW
LayerCount: 2
Back
Fore
SplineSet
190 1072 m 1
 242 1072 l 1
 242 720 l 1
 190 720 l 1
 190 1072 l 1
EndSplineSet
EndChar

StartChar: parenleft
Encoding: 40 40 11
Width: 592
VWidth: 1524
GlyphClass: 2
Flags: HMW
LayerCount: 2
Back
Fore
SplineSet
424 1140 m 1
 303 902 244 665 244 426 c 0
 244 187 304 -52 423 -286 c 1
 390 -286 l 1
 243 -35 172 199 172 430 c 0
 172 661 245 896 390 1140 c 1
 424 1140 l 1
EndSplineSet
EndChar

StartChar: parenright
Encoding: 41 41 12
Width: 592
VWidth: 1524
GlyphClass: 2
Flags: HMW
LayerCount: 2
Back
Fore
SplineSet
225 1140 m 1
 371 890 442 655 442 424 c 0
 442 193 369 -42 225 -286 c 1
 191 -286 l 1
 312 -46 371 190 371 427 c 0
 371 664 310 903 191 1140 c 1
 225 1140 l 1
EndSplineSet
EndChar

StartChar: asterisk
Encoding: 42 42 13
Width: 767
VWidth: 1524
GlyphClass: 2
Flags: HMW
LayerCount: 2
Back
Fore
SplineSet
494 706 m 1
 695 596 l 1
 687 576 l 1
 494 706 l 1
492 825 m 1
 687 954 l 1
 695 934 l 1
 492 825 l 1
289 830 m 1
 96 934 l 1
 104 953 l 1
 289 830 l 1
294 705 m 1
 104 576 l 1
 96 596 l 1
 294 705 l 1
395 760 m 1
 400 758 l 1
 400 424 l 1
 390 424 l 1
 390 758 l 1
 395 760 l 1
400 776 m 1
 395 773 l 1
 390 776 l 1
 390 1114 l 1
 400 1114 l 1
 400 776 l 1
EndSplineSet
EndChar

StartChar: plus
Encoding: 43 43 14
Width: 1309
VWidth: 1524
GlyphClass: 2
Flags: HMW
LayerCount: 2
Back
Fore
SplineSet
692 909 m 1
 692 473 l 1
 1127 473 l 1
 1127 420 l 1
 692 420 l 1
 692 -55 l 1
 640 -55 l 1
 640 420 l 1
 205 420 l 1
 205 473 l 1
 640 473 l 1
 640 909 l 1
 692 909 l 1
EndSplineSet
EndChar

StartChar: uni002C
Encoding: 44 44 15
Width: 476
VWidth: 1524
GlyphClass: 2
Flags: HMW
LayerCount: 2
Back
Fore
SplineSet
223 103 m 1
 308 103 l 1
 308 -21 l 1
 196 -221 l 1
 170 -221 l 1
 223 -35 l 1
 223 103 l 1
EndSplineSet
EndChar

StartChar: hyphen_minus
Encoding: 45 45 16
Width: 545
VWidth: 1524
GlyphClass: 2
Flags: HMW
LayerCount: 2
Back
Fore
SplineSet
114 360 m 1
 114 408 l 1
 455 408 l 1
 455 360 l 1
 114 360 l 1
EndSplineSet
EndChar

StartChar: period
Encoding: 46 46 17
Width: 476
VWidth: 1524
GlyphClass: 2
Flags: HMW
LayerCount: 2
Back
Fore
SplineSet
207 -15 m 1
 207 103 l 1
 292 103 l 1
 292 -15 l 1
 207 -15 l 1
EndSplineSet
Substitution2: "'calt' Contextual Alternates in Arabic lookup 9 subtable" period.fa
EndChar

StartChar: slash
Encoding: 47 47 18
Width: 506
VWidth: 1524
GlyphClass: 2
Flags: HMW
LayerCount: 2
Back
Fore
SplineSet
99 -224 m 1
 48 -224 l 1
 431 1092 l 1
 482 1092 l 1
 99 -224 l 1
EndSplineSet
EndChar

StartChar: colon
Encoding: 58 58 19
Width: 506
VWidth: 1524
GlyphClass: 2
Flags: HMW
LayerCount: 2
Back
Fore
SplineSet
223 615 m 1
 223 734 l 1
 308 734 l 1
 308 615 l 1
 223 615 l 1
223 -15 m 1
 223 103 l 1
 308 103 l 1
 308 -15 l 1
 223 -15 l 1
EndSplineSet
Substitution2: "'calt' Contextual Alternates in Arabic lookup 9 subtable" colon.fa
EndChar

StartChar: uni003B
Encoding: 59 59 20
Width: 506
VWidth: 1524
GlyphClass: 2
Flags: HMW
LayerCount: 2
Back
Fore
SplineSet
223 103 m 1
 308 103 l 1
 308 -21 l 1
 196 -241 l 1
 170 -241 l 1
 223 -35 l 1
 223 103 l 1
223 615 m 1
 223 734 l 1
 308 734 l 1
 308 615 l 1
 223 615 l 1
EndSplineSet
EndChar

StartChar: uni003C
Encoding: 60 60 21
Width: 1309
VWidth: 1524
GlyphClass: 2
Flags: HMW
LayerCount: 2
Back
Fore
SplineSet
1127 56 m 1
 205 408 l 1
 205 482 l 1
 1127 835 l 1
 1127 778 l 1
 245 444 l 1
 1127 111 l 1
 1127 56 l 1
EndSplineSet
EndChar

StartChar: equal
Encoding: 61 61 22
Width: 1309
VWidth: 1524
GlyphClass: 2
Flags: HMW
LayerCount: 2
Back
Fore
SplineSet
205 260 m 1
 205 314 l 1
 1127 314 l 1
 1127 260 l 1
 205 260 l 1
205 580 m 1
 205 631 l 1
 1127 631 l 1
 1127 580 l 1
 205 580 l 1
EndSplineSet
EndChar

StartChar: uni003E
Encoding: 62 62 23
Width: 1309
VWidth: 1524
GlyphClass: 2
Flags: HMW
LayerCount: 2
Back
Fore
SplineSet
1127 408 m 1
 205 56 l 1
 205 111 l 1
 1086 444 l 1
 205 778 l 1
 205 835 l 1
 1127 482 l 1
 1127 408 l 1
EndSplineSet
EndChar

StartChar: uni003F
Encoding: 63 63 24
Width: 817
VWidth: 1524
GlyphClass: 2
Flags: HMW
LayerCount: 2
Back
Fore
SplineSet
448 599 m 2
 517 669 l 2
 580 730 615 790 615 850 c 0
 615 981 504 1044 375 1044 c 0
 308 1044 232 1018 150 971 c 1
 150 1022 l 1
 239 1071 323 1094 410 1094 c 0
 575 1094 693 1006 693 857 c 0
 693 824 684 793 669 762 c 0
 654 733 624 695 579 652 c 2
 509 585 l 2
 470 546 446 515 433 486 c 0
 420 457 415 414 415 356 c 2
 415 299 l 1
 345 299 l 1
 345 378 l 2
 345 426 352 465 363 493 c 0
 374 521 402 556 448 599 c 2
339 -15 m 1
 339 103 l 1
 420 103 l 1
 420 -15 l 1
 339 -15 l 1
EndSplineSet
EndChar

StartChar: uni0040
Encoding: 64 64 25
Width: 1568
VWidth: 1524
GlyphClass: 2
Flags: HMW
LayerCount: 2
Back
Fore
SplineSet
985 155 m 2
 933 85 866 52 781 52 c 0
 606 52 505 183 505 366 c 0
 505 547 606 677 779 677 c 0
 863 677 931 644 985 575 c 2
 1057 484 l 1
 1057 662 l 1
 1090 662 l 1
 1090 81 l 1
 1135 86 l 1
 1317 113 1412 264 1412 470 c 0
 1412 580 1378 677 1313 761 c 0
 1186 919 1021 1000 820 1000 c 0
 685 1000 563 963 451 892 c 0
 303 794 171 612 171 384 c 0
 171 180 232 10 355 -121 c 1
 478 -242 630 -302 807 -302 c 0
 940 -302 1064 -261 1176 -184 c 1
 1197 -210 l 1
 1077 -293 949 -334 807 -334 c 0
 619 -334 462 -271 333 -146 c 1
 205 -11 141 159 141 365 c 0
 141 555 205 712 333 840 c 0
 462 968 623 1032 818 1032 c 0
 1036 1032 1211 946 1344 771 c 0
 1412 684 1445 578 1445 454 c 0
 1445 210 1290 71 1057 53 c 1
 1057 250 l 1
 985 155 l 2
799 644 m 0
 640 644 551 521 551 364 c 0
 551 206 640 86 799 86 c 0
 958 86 1046 206 1046 364 c 0
 1046 521 958 644 799 644 c 0
EndSplineSet
EndChar

StartChar: bracketleft
Encoding: 91 91 26
Width: 592
VWidth: 1524
GlyphClass: 2
Flags: HMW
LayerCount: 2
Back
Fore
SplineSet
237 1090 m 1
 237 -234 l 1
 424 -234 l 1
 424 -266 l 1
 172 -266 l 1
 172 1121 l 1
 424 1121 l 1
 424 1090 l 1
 237 1090 l 1
EndSplineSet
EndChar

StartChar: uni005C
Encoding: 92 92 27
Width: 506
VWidth: 1524
GlyphClass: 2
Flags: HMW
LayerCount: 2
Back
Fore
SplineSet
482 -224 m 1
 431 -224 l 1
 48 1092 l 1
 99 1092 l 1
 482 -224 l 1
EndSplineSet
EndChar

StartChar: bracketright
Encoding: 93 93 28
Width: 592
VWidth: 1524
GlyphClass: 2
Flags: HMW
LayerCount: 2
Back
Fore
SplineSet
191 1090 m 1
 191 1121 l 1
 442 1121 l 1
 442 -266 l 1
 191 -266 l 1
 191 -234 l 1
 377 -234 l 1
 377 1090 l 1
 191 1090 l 1
EndSplineSet
EndChar

StartChar: uni005E
Encoding: 94 94 29
Width: 1309
VWidth: 1524
GlyphClass: 2
Flags: HMW
LayerCount: 2
Back
Fore
SplineSet
260 717 m 1
 605 1072 l 1
 727 1072 l 1
 1072 717 l 1
 1025 717 l 1
 665 1038 l 1
 305 717 l 1
 260 717 l 1
EndSplineSet
EndChar

StartChar: uni005F
Encoding: 95 95 30
Width: 767
VWidth: 1524
GlyphClass: 2
Flags: HMW
LayerCount: 2
Back
Fore
SplineSet
20 -432 m 1
 20 -400 l 1
 771 -400 l 1
 771 -432 l 1
 20 -432 l 1
EndSplineSet
EndChar

StartChar: uni0060
Encoding: 96 96 31
Width: 767
VWidth: 1524
GlyphClass: 2
Flags: HMW
LayerCount: 2
Back
Fore
SplineSet
402 973 m 1
 216 1186 l 1
 262 1186 l 1
 423 973 l 1
 402 973 l 1
EndSplineSet
EndChar

StartChar: braceleft
Encoding: 123 123 32
Width: 986
VWidth: 1524
GlyphClass: 2
Flags: HMW
LayerCount: 2
Back
Fore
SplineSet
416 385 m 2
 519 359 543 314 543 169 c 2
 543 -64 l 2
 543 -231 593 -284 761 -284 c 2
 774 -284 l 1
 774 -317 l 1
 766 -317 l 2
 641 -316 565 -298 533 -269 c 0
 501 -240 479 -175 479 -67 c 2
 479 159 l 2
 479 331 416 408 243 408 c 2
 235 408 l 1
 235 440 l 1
 243 440 l 2
 416 440 479 513 479 686 c 2
 479 873 l 2
 479 980 501 1045 533 1074 c 0
 565 1103 642 1121 766 1121 c 2
 774 1121 l 1
 774 1090 l 1
 761 1090 l 2
 594 1090 543 1038 543 871 c 2
 543 677 l 2
 543 534 520 486 417 464 c 2
 252 428 l 1
 416 385 l 2
EndSplineSet
EndChar

StartChar: uni007C
Encoding: 124 124 33
Width: 506
VWidth: 1524
GlyphClass: 2
Flags: HMW
LayerCount: 2
Back
Fore
SplineSet
292 -452 m 1
 239 -452 l 1
 239 1149 l 1
 292 1149 l 1
 292 -452 l 1
EndSplineSet
EndChar

StartChar: braceright
Encoding: 125 125 34
Width: 986
VWidth: 1524
GlyphClass: 2
Flags: HMW
LayerCount: 2
Back
Fore
SplineSet
774 440 m 1
 774 408 l 1
 766 408 l 2
 592 408 529 331 529 159 c 2
 529 -67 l 2
 529 -174 508 -241 477 -270 c 0
 446 -299 369 -317 245 -317 c 2
 235 -317 l 1
 235 -284 l 1
 249 -284 l 2
 415 -284 465 -231 465 -64 c 2
 465 169 l 2
 465 313 489 360 592 385 c 2
 758 424 l 1
 592 463 l 2
 489 486 465 534 465 677 c 2
 465 871 l 2
 465 1037 415 1090 249 1090 c 2
 235 1090 l 1
 235 1121 l 1
 252 1121 l 2
 371 1121 447 1104 478 1076 c 0
 508 1049 529 981 529 873 c 2
 529 686 l 2
 529 513 594 440 766 440 c 2
 774 440 l 1
EndSplineSet
EndChar

StartChar: uni007E
Encoding: 126 126 35
Width: 1309
VWidth: 1524
GlyphClass: 2
Flags: HMW
LayerCount: 2
Back
Fore
SplineSet
205 390 m 1
 205 429 l 1
 300 496 384 525 463 525 c 0
 513 525 582 509 667 474 c 0
 756 439 828 419 887 419 c 0
 964 419 1045 449 1127 504 c 1
 1127 465 l 1
 1030 398 952 369 881 369 c 0
 806 369 732 388 660 423 c 1
 657 426 l 1
 653 426 l 1
 571 458 502 475 447 475 c 2
 444 475 l 2
 364 475 285 444 205 390 c 1
EndSplineSet
EndChar

StartChar: uni00A4
Encoding: 164 164 36
Width: 986
VWidth: 1524
GlyphClass: 2
Flags: HMW
LayerCount: 2
Back
Fore
SplineSet
255 449 m 0
 255 310 365 197 505 197 c 0
 645 197 755 306 755 446 c 0
 755 584 646 695 507 695 c 0
 370 695 255 589 255 449 c 0
731 639 m 1
 774 579 799 504 799 444 c 0
 799 372 766 315 725 258 c 1
 885 101 l 1
 852 67 l 1
 696 228 l 1
 643 184 566 153 505 153 c 0
 449 153 374 178 313 222 c 1
 157 66 l 1
 125 99 l 1
 280 253 l 1
 277 260 l 1
 238 327 213 390 213 448 c 0
 213 507 241 575 284 635 c 1
 126 792 l 1
 159 826 l 1
 317 669 l 1
 373 709 431 738 499 738 c 0
 567 738 626 713 685 679 c 1
 686 679 l 1
 699 673 l 1
 853 829 l 1
 886 795 l 1
 731 639 l 1
EndSplineSet
EndChar

StartChar: uni00A7
Encoding: 167 167 37
Width: 767
VWidth: 1524
GlyphClass: 2
Flags: HMW
LayerCount: 2
Back
Fore
SplineSet
431 1060 m 0
 302 1060 223 1008 223 903 c 0
 223 834 304 755 439 687 c 1
 543 628 611 579 639 546 c 0
 669 513 683 476 683 432 c 0
 683 356 644 296 558 246 c 2
 507 218 l 1
 553 180 l 2
 606 135 631 85 631 28 c 0
 631 -119 523 -208 389 -208 c 0
 318 -208 244 -197 169 -174 c 1
 169 -135 l 1
 242 -162 301 -175 358 -175 c 0
 462 -175 567 -113 567 21 c 0
 567 66 547 107 514 140 c 0
 481 173 435 208 373 242 c 2
 353 252 l 1
 244 313 176 361 149 394 c 0
 120 427 107 466 107 511 c 0
 107 590 145 650 230 695 c 2
 284 726 l 1
 235 763 l 2
 182 802 158 849 158 906 c 0
 158 1023 263 1094 395 1094 c 0
 464 1094 535 1083 604 1060 c 1
 604 1021 l 1
 536 1048 482 1060 431 1060 c 0
570 547 m 0
 530 586 427 655 299 719 c 1
 288 725 l 1
 268 709 l 1
 195 656 154 601 154 541 c 0
 154 485 175 438 217 398 c 0
 257 362 361 288 501 218 c 1
 521 234 l 2
 592 287 636 343 636 402 c 0
 636 457 614 506 570 547 c 0
EndSplineSet
EndChar

StartChar: guillemotleft
Encoding: 171 171 38
Width: 947
VWidth: 1524
GlyphClass: 2
Flags: HMW
LayerCount: 2
Back
Fore
SplineSet
446 642 m 1
 189 414 l 1
 446 186 l 1
 446 144 l 1
 158 399 l 1
 158 429 l 1
 446 685 l 1
 446 642 l 1
784 640 m 1
 529 414 l 1
 784 187 l 1
 784 145 l 1
 498 399 l 1
 498 429 l 1
 784 685 l 1
 784 640 l 1
EndSplineSet
Substitution2: "'calt' Contextual Alternates in Arabic lookup 9 subtable" guillemotleft.fa
EndChar

StartChar: uni00AC
Encoding: 172 172 39
Width: 1309
VWidth: 1524
GlyphClass: 2
Flags: HMW
LayerCount: 2
Back
Fore
SplineSet
205 526 m 1
 205 579 l 1
 1127 579 l 1
 1127 209 l 1
 1076 209 l 1
 1076 526 l 1
 205 526 l 1
EndSplineSet
EndChar

StartChar: uni00B0
Encoding: 176 176 40
Width: 767
VWidth: 1524
GlyphClass: 2
Flags: HMW
LayerCount: 2
Back
Fore
SplineSet
188 884 m 0
 188 1003 278 1094 395 1094 c 0
 510 1094 602 997 604 882 c 0
 604 769 510 676 393 676 c 0
 272 676 188 763 188 884 c 0
584 882 m 0
 584 986 500 1072 395 1072 c 0
 291 1072 207 988 207 884 c 0
 207 780 291 696 395 696 c 0
 498 696 584 777 584 882 c 0
EndSplineSet
EndChar

StartChar: uni00B6
Encoding: 182 182 41
Width: 986
VWidth: 1524
GlyphClass: 2
Flags: HMW
LayerCount: 2
Back
Fore
SplineSet
511 491 m 1
 492 491 l 1
 287 502 157 593 157 784 c 0
 157 963 297 1072 489 1072 c 2
 801 1072 l 1
 801 -208 l 1
 770 -208 l 1
 770 1056 l 1
 541 1056 l 1
 541 -208 l 1
 511 -208 l 1
 511 491 l 1
EndSplineSet
EndChar

StartChar: periodcentered
Encoding: 183 183 42
Width: 476
VWidth: 1524
GlyphClass: 2
Flags: HMW
LayerCount: 2
Back
Fore
SplineSet
207 560 m 1
 292 560 l 1
 292 442 l 1
 207 442 l 1
 207 560 l 1
EndSplineSet
EndChar

StartChar: guillemotright
Encoding: 187 187 43
Width: 947
VWidth: 1524
GlyphClass: 2
Flags: HMW
LayerCount: 2
Back
Fore
SplineSet
526 640 m 1
 526 685 l 1
 812 429 l 1
 812 399 l 1
 526 145 l 1
 526 187 l 1
 781 414 l 1
 526 640 l 1
186 641 m 1
 186 685 l 1
 473 429 l 1
 473 400 l 1
 186 145 l 1
 186 187 l 1
 442 414 l 1
 186 641 l 1
EndSplineSet
Substitution2: "'calt' Contextual Alternates in Arabic lookup 9 subtable" guillemotright.fa
EndChar

StartChar: divide
Encoding: 247 247 44
Width: 1309
VWidth: 1524
GlyphClass: 2
Flags: HMW
LayerCount: 2
Back
Fore
SplineSet
205 420 m 1
 205 473 l 1
 1127 473 l 1
 1127 420 l 1
 205 420 l 1
609 102 m 1
 609 213 l 1
 722 213 l 1
 722 102 l 1
 609 102 l 1
609 679 m 1
 609 792 l 1
 722 792 l 1
 722 679 l 1
 609 679 l 1
EndSplineSet
EndChar

StartChar: uni2014
Encoding: 8212 8212 45
Width: 1568
VWidth: 1524
GlyphClass: 2
Flags: HMW
LayerCount: 2
Back
Fore
SplineSet
35 366 m 1
 35 400 l 1
 1557 400 l 1
 1557 366 l 1
 35 366 l 1
EndSplineSet
EndChar

StartChar: uni2022
Encoding: 8226 8226 46
Width: 911
VWidth: 1524
GlyphClass: 2
Flags: HMW
LayerCount: 2
Back
Fore
SplineSet
659 540 m 0
 659 434 573 348 467 348 c 0
 360 348 275 433 275 540 c 0
 275 646 361 732 467 732 c 0
 574 732 659 647 659 540 c 0
EndSplineSet
EndChar

StartChar: uni2026
Encoding: 8230 8230 47
Width: 1568
VWidth: 1524
GlyphClass: 2
Flags: HMW
LayerCount: 2
Back
Fore
SplineSet
219 -15 m 1
 219 103 l 1
 307 103 l 1
 307 -15 l 1
 219 -15 l 1
1285 -15 m 1
 1285 103 l 1
 1371 103 l 1
 1371 -15 l 1
 1285 -15 l 1
753 -15 m 1
 753 103 l 1
 839 103 l 1
 839 -15 l 1
 753 -15 l 1
EndSplineSet
Substitution2: "'calt' Contextual Alternates in Arabic lookup 9 subtable" uni2026.fa
EndChar

StartChar: multiply
Encoding: 215 215 49
Width: 1309
VWidth: 1524
GlyphClass: 2
Flags: HMW
LayerCount: 2
Back
Fore
SplineSet
1025 30 m 1
 665 404 l 1
 307 30 l 1
 271 69 l 1
 627 440 l 1
 271 813 l 1
 307 850 l 1
 665 476 l 1
 1025 851 l 1
 1061 813 l 1
 705 440 l 1
 1061 69 l 1
 1025 30 l 1
EndSplineSet
EndChar

StartChar: uni2010
Encoding: 8208 8208 54
Width: 545
VWidth: 1524
GlyphClass: 2
Flags: HMW
LayerCount: 2
Back
Fore
SplineSet
114 360 m 1
 114 408 l 1
 455 408 l 1
 455 360 l 1
 114 360 l 1
EndSplineSet
EndChar

StartChar: uni20AC
Encoding: 8364 8364 55
Width: 986
VWidth: 1524
GlyphClass: 2
Flags: HMW
LayerCount: 2
Back
Fore
SplineSet
270 649 m 1
 266 612 263 573 263 528 c 0
 263 483 266 445 270 408 c 1
 593 408 l 1
 586 392 l 1
 270 392 l 1
 278 345 l 1
 308 139 416 -33 625 -33 c 0
 685 -33 738 -7 782 43 c 1
 813 60 841 80 868 103 c 1
 868 53 l 1
 784 -36 697 -78 599 -78 c 0
 370 -78 233 114 199 358 c 1
 199 359 l 1
 192 392 l 1
 56 392 l 1
 63 408 l 1
 187 408 l 1
 186 528 l 1
 187 649 l 1
 57 649 l 1
 64 664 l 1
 192 664 l 1
 196 680 l 1
 220 816 259 915 339 990 c 0
 413 1059 499 1094 601 1094 c 0
 699 1094 790 1062 868 1002 c 1
 868 955 l 1
 794 1019 715 1049 631 1049 c 0
 416 1049 312 898 278 711 c 2
 270 664 l 1
 708 664 l 1
 701 649 l 1
 270 649 l 1
EndSplineSet
EndChar

StartChar: uni2212
Encoding: 8722 8722 56
Width: 1309
VWidth: 1524
GlyphClass: 2
Flags: HMW
LayerCount: 2
Back
Fore
SplineSet
205 420 m 1
 205 473 l 1
 1127 473 l 1
 1127 420 l 1
 205 420 l 1
EndSplineSet
EndChar

StartChar: uni2219
Encoding: 8729 8729 57
Width: 476
VWidth: 1524
GlyphClass: 2
Flags: HMW
LayerCount: 2
Back
Fore
SplineSet
207 560 m 1
 292 560 l 1
 292 442 l 1
 207 442 l 1
 207 560 l 1
EndSplineSet
EndChar

StartChar: uni25CC
Encoding: 9676 9676 58
Width: 1160
VWidth: 1524
GlyphClass: 2
Flags: HMW
AnchorPoint: "Anchor-5" 593 -380 basechar 0
AnchorPoint: "Anchor-4" 569 1004 basechar 0
LayerCount: 2
Back
Fore
SplineSet
596 -201 m 1
 607 -201 617 -201 627 -200 c 1
 618 -201 607 -201 596 -201 c 1
317 -117 m 1
 318 -116 l 1
 339 -130 359 -142 378 -152 c 1
 355 -142 336 -130 317 -117 c 1
153 113 m 1
 154 114 l 1
 165 91 177 70 189 52 c 1
 175 72 163 92 153 113 c 1
EndSplineSet
EndChar

StartChar: virgul
Encoding: 1548 1548 59
Width: 476
VWidth: 1524
GlyphClass: 2
Flags: HMW
LayerCount: 2
Back
Fore
SplineSet
271 289 m 1
 296 289 l 1
 243 85 l 1
 243 -15 l 1
 158 -15 l 1
 158 71 l 1
 271 289 l 1
EndSplineSet
Substitution2: "'calt' Contextual Alternates in Arabic lookup 9 subtable" virgul.fa
EndChar

StartChar: noqte_virgul
Encoding: 1563 1563 60
Width: 506
VWidth: 1524
GlyphClass: 2
Flags: HMW
LayerCount: 2
Back
Fore
SplineSet
113 481 m 1
 113 567 l 1
 197 731 l 1
 197 481 l 1
 113 481 l 1
113 -15 m 1
 113 103 l 1
 197 103 l 1
 197 -15 l 1
 113 -15 l 1
EndSplineSet
Substitution2: "'calt' Contextual Alternates in Arabic lookup 9 subtable" noqte_virgul.fa
EndChar

StartChar: soal
Encoding: 1567 1567 61
Width: 817
VWidth: 1524
GlyphClass: 2
Flags: HMW
LayerCount: 2
Back
Fore
SplineSet
443 1045 m 0
 328 1045 228 975 228 847 c 0
 228 791 262 732 324 669 c 2
 395 599 l 2
 439 555 465 522 476 498 c 0
 487 474 494 433 497 377 c 2
 501 299 l 1
 428 299 l 1
 428 356 l 2
 428 490 408 510 333 585 c 2
 265 651 l 2
 219 696 189 735 174 764 c 0
 159 795 150 826 150 858 c 0
 150 1010 266 1094 433 1094 c 0
 518 1094 608 1069 693 1022 c 1
 693 971 l 1
 607 1021 525 1045 443 1045 c 0
424 -15 m 1
 424 103 l 1
 502 103 l 1
 502 -15 l 1
 424 -15 l 1
EndSplineSet
EndChar

StartChar: hamze
Encoding: 1569 1569 62
Width: 569
VWidth: 1524
GlyphClass: 2
Flags: HMW
AnchorPoint: "Anchor-1" 288 -27 basechar 0
AnchorPoint: "Anchor-0" 277 686 basechar 0
LayerCount: 2
Back
Fore
SplineSet
292 209 m 1
 357 225 421 243 472 253 c 1
 484 185 l 1
 331 151 208 106 111 50 c 1
 85 106 l 1
 107 119 130 132 158 148 c 2
 206 175 l 1
 165 212 l 2
 128 244 110 283 110 328 c 0
 110 373 129 418 172 464 c 0
 215 510 257 530 294 530 c 0
 343 530 376 514 406 491 c 1
 372 442 l 1
 347 453 321 458 292 458 c 0
 227 458 147 402 147 333 c 0
 147 305 159 280 182 265 c 0
 201 253 235 234 286 213 c 1
 292 209 l 1
EndSplineSet
Substitution2: "'isol' Isolated Forms in Arabic lookup 6 subtable" uniFE80
EndChar

StartChar: kashidas
Encoding: 1600 1600 63
Width: 517
VWidth: 1524
GlyphClass: 2
Flags: HMW
AnchorPoint: "Anchor-1" 229 -161 basechar 0
AnchorPoint: "Anchor-0" 241 707 basechar 0
LayerCount: 2
Back
Fore
SplineSet
-20 60 m 1
 -20 130 l 1
 506 130 l 1
 506 60 l 1
 -20 60 l 1
EndSplineSet
EndChar

StartChar: uni0660
Encoding: 1632 1632 64
Width: 986
VWidth: 1584
GlyphClass: 2
Flags: HMW
LayerCount: 2
Back
Fore
SplineSet
374 571 m 1
 487 710 l 1
 633 600 l 1
 517 457 l 1
 374 571 l 1
EndSplineSet
EndChar

StartChar: uni0661
Encoding: 1633 1633 65
Width: 986
VWidth: 1584
GlyphClass: 2
Flags: HMW
LayerCount: 2
Back
Fore
SplineSet
666 45 m 1
 648 398 552 718 383 1009 c 0
 365 1043 345 1077 328 1106 c 1
 367 1140 l 1
 576 793 689 428 706 45 c 1
 666 45 l 1
EndSplineSet
EndChar

StartChar: uni0662
Encoding: 1634 1634 66
Width: 986
VWidth: 1584
GlyphClass: 2
Flags: HMW
LayerCount: 2
Back
Fore
SplineSet
354 852 m 2
 470 609 531 343 536 65 c 1
 496 65 l 1
 488 422 377 760 166 1087 c 1
 209 1124 l 1
 308 1023 405 966 501 955 c 0
 531 952 564 950 597 950 c 0
 701 950 776 1031 826 1172 c 1
 867 1156 l 1
 800 964 710 879 597 879 c 0
 515 879 450 889 405 906 c 2
 310 942 l 1
 354 852 l 2
EndSplineSet
EndChar

StartChar: uni0663
Encoding: 1635 1635 67
Width: 986
VWidth: 1584
GlyphClass: 2
Flags: HMW
LayerCount: 2
Back
Fore
SplineSet
713 985 m 0
 730 974 751 970 771 970 c 0
 867 970 884 1096 894 1186 c 1
 930 1184 l 1
 917 1074 897 1001 873 961 c 0
 849 920 814 900 763 900 c 0
 714 900 673 923 639 978 c 2
 603 1036 l 1
 571 977 l 2
 534 911 490 882 433 882 c 0
 402 882 369 887 333 901 c 2
 247 934 l 1
 283 848 l 2
 371 637 436 373 475 65 c 1
 437 65 l 1
 382 483 272 824 107 1090 c 1
 144 1122 l 1
 231 1010 327 953 433 953 c 0
 543 953 580 1089 587 1189 c 1
 625 1189 l 1
 631 1085 658 1016 713 985 c 0
EndSplineSet
EndChar

StartChar: uni0664
Encoding: 1636 1636 68
Width: 986
VWidth: 1584
GlyphClass: 2
Flags: HMW
LayerCount: 2
Back
Fore
SplineSet
394 150 m 1
 460 115 558 89 683 69 c 1
 674 -39 l 1
 407 29 291 132 291 258 c 0
 291 329 325 409 395 500 c 0
 421 533 450 567 485 607 c 2
 519 645 l 1
 476 669 l 2
 345 746 287 821 287 891 c 0
 287 961 352 1040 497 1128 c 0
 530 1147 571 1167 609 1184 c 1
 630 1124 l 1
 496 1067 408 1017 357 966 c 0
 336 941 324 914 324 884 c 0
 324 848 354 816 399 784 c 0
 441 754 509 713 594 665 c 1
 419 474 328 345 328 258 c 0
 328 215 353 178 392 152 c 1
 394 150 l 1
EndSplineSet
EndChar

StartChar: uni0665
Encoding: 1637 1637 69
Width: 986
VWidth: 1584
GlyphClass: 2
Flags: HMW
LayerCount: 2
Back
Fore
SplineSet
486 789 m 1
 479 789 l 1
 475 787 l 1
 474 787 l 1
 321 725 238 627 238 493 c 0
 239 362 344 291 487 291 c 0
 664 291 772 343 772 462 c 0
 770 633 640 762 486 789 c 1
483 862 m 1
 666 827 807 682 807 478 c 0
 807 280 702 220 486 220 c 0
 305 220 200 309 200 491 c 0
 200 537 207 583 224 629 c 0
 265 742 351 819 483 862 c 1
EndSplineSet
EndChar

StartChar: uni0666
Encoding: 1638 1638 70
Width: 986
VWidth: 1584
GlyphClass: 2
Flags: HMW
LayerCount: 2
Back
Fore
SplineSet
174 1046 m 1
 228 1005 284 984 344 984 c 0
 449 984 570 1003 701 1038 c 1
 674 845 661 787 661 567 c 0
 661 468 665 398 674 354 c 0
 700 242 746 158 813 106 c 1
 788 50 l 1
 748 85 713 134 680 202 c 0
 643 280 623 390 623 531 c 0
 623 674 630 795 643 899 c 2
 648 953 l 1
 595 944 l 2
 489 922 415 911 371 911 c 0
 326 911 296 915 283 919 c 0
 239 932 191 958 140 1001 c 1
 174 1046 l 1
EndSplineSet
EndChar

StartChar: uni0667
Encoding: 1639 1639 71
Width: 986
VWidth: 1584
GlyphClass: 2
Flags: HMW
LayerCount: 2
Back
Fore
SplineSet
922 1146 m 1
 687 804 621 519 541 45 c 1
 480 45 l 1
 442 255 414 405 388 508 c 0
 336 721 239 933 97 1146 c 1
 135 1179 l 1
 260 994 344 826 391 668 c 0
 408 615 435 500 471 330 c 2
 511 140 l 1
 551 330 l 2
 638 732 698 890 886 1178 c 1
 922 1146 l 1
EndSplineSet
EndChar

StartChar: uni0668
Encoding: 1640 1640 72
Width: 986
VWidth: 1584
GlyphClass: 2
Flags: HMW
LayerCount: 2
Back
Fore
SplineSet
520 1179 m 1
 615 628 678 394 903 71 c 1
 867 37 l 1
 670 321 618 466 529 862 c 2
 488 1051 l 1
 449 862 l 2
 414 696 386 575 363 503 c 0
 321 370 237 211 114 35 c 1
 76 71 l 1
 319 431 379 694 459 1179 c 1
 520 1179 l 1
EndSplineSet
EndChar

StartChar: uni0669
Encoding: 1641 1641 73
Width: 986
VWidth: 1584
GlyphClass: 2
Flags: HMW
LayerCount: 2
Back
Fore
SplineSet
542 708 m 2
 492 683 441 670 385 670 c 0
 202 670 143 718 143 884 c 0
 143 1025 238 1190 362 1190 c 0
 421 1190 480 1156 543 1080 c 0
 604 1006 637 905 637 777 c 0
 637 491 686 284 788 156 c 0
 807 133 828 115 849 99 c 1
 826 42 l 1
 697 136 620 345 601 675 c 2
 597 736 l 1
 542 708 l 2
600 810 m 1
 586 907 558 987 509 1040 c 0
 464 1089 413 1118 355 1119 c 2
 351 1119 l 2
 246 1119 181 988 181 896 c 0
 181 796 240 741 342 741 c 0
 481 741 493 750 588 802 c 1
 600 810 l 1
EndSplineSet
EndChar

StartChar: uni066A
Encoding: 1642 1642 74
Width: 965
VWidth: 1524
GlyphClass: 2
Flags: HMW
LayerCount: 2
Back
Fore
SplineSet
149 970 m 1
 149 1145 l 1
 326 1145 l 1
 326 970 l 1
 149 970 l 1
666 -101 m 1
 666 75 l 1
 840 75 l 1
 840 -101 l 1
 666 -101 l 1
124 -215 m 1
 861 1227 l 1
 869 1227 l 1
 133 -215 l 1
 124 -215 l 1
EndSplineSet
EndChar

StartChar: uni066B
Encoding: 1643 1643 75
Width: 476
VWidth: 1524
GlyphClass: 2
Flags: HMW
LayerCount: 2
Back
Fore
SplineSet
-23 -398 m 1
 -33 -398 l 1
 403 828 l 1
 420 828 l 1
 -23 -398 l 1
EndSplineSet
Substitution2: "'calt' Contextual Alternates in Arabic lookup 10 subtable" uni066B.ar
EndChar

StartChar: uni066C
Encoding: 1644 1644 76
Width: 476
VWidth: 1524
GlyphClass: 2
Flags: HMW
LayerCount: 2
Back
Fore
SplineSet
218 175 m 2
 218 177 l 2
 216 205 244 226 285 226 c 0
 333 226 355 204 355 142 c 0
 355 126 354 109 352 96 c 2
 340 186 l 1
 283 127 l 2
 281 125 276 122 264 122 c 0
 245 122 216 151 218 175 c 2
EndSplineSet
Substitution2: "'calt' Contextual Alternates in Arabic lookup 10 subtable" uni066C.ar
EndChar

StartChar: uni066B.ar
Encoding: 65537 -1 77
Width: 476
VWidth: 1524
GlyphClass: 2
Flags: HMW
LayerCount: 2
Back
Fore
SplineSet
262 -17 m 1
 224 -17 183 26 183 70 c 0
 183 110 225 157 257 157 c 0
 341 157 396 80 396 -43 c 0
 396 -85 387 -123 370 -158 c 1
 376 -138 379 -120 379 -100 c 0
 379 -82 376 -65 371 -54 c 2
 350 46 l 1
 309 -37 l 1
 262 -17 l 1
EndSplineSet
EndChar

StartChar: uni066C.ar
Encoding: 65538 -1 78
Width: 476
VWidth: 1524
GlyphClass: 2
Flags: HMW
LayerCount: 2
Back
Fore
SplineSet
372 459 m 2
 367 455 362 452 351 452 c 0
 329 452 310 471 310 500 c 0
 310 522 325 541 364 541 c 0
 378 541 407 518 416 497 c 1
 372 459 l 2
EndSplineSet
EndChar

StartChar: num.zero
Encoding: 1776 1776 79
Width: 986
VWidth: 1584
GlyphClass: 2
Flags: HMW
LayerCount: 2
Back
Fore
SplineSet
308 582 m 0
 310 695 395 788 502 788 c 0
 600 788 682 709 695 610 c 1
 679 697 597 767 506 767 c 2
 500 767 l 2
 399 767 309 686 309 582 c 0
 309 575 309 568 310 561 c 1
 309 568 308 575 308 582 c 0
310 561 m 1
 312 542 316 525 323 509 c 1
 317 525 313 543 310 561 c 1
323 509 m 1
 341 467 376 435 427 414 c 0
 450 403 477 398 503 398 c 0
 589 398 670 457 692 539 c 1
 673 449 596 377 506 377 c 2
 503 377 l 2
 418 377 352 433 323 509 c 1
692 539 m 1
 696 553 698 567 698 582 c 0
 698 591 697 601 695 610 c 1
 696 601 697 591 697 582 c 0
 697 567 695 553 692 539 c 1
EndSplineSet
EndChar

StartChar: num.four
Encoding: 1780 1780 83
Width: 986
VWidth: 1584
GlyphClass: 2
Flags: HMW
LayerCount: 2
Back
Fore
SplineSet
481 1050 m 0
 481 1161 569 1254 673 1254 c 0
 750 1254 761 1247 796 1232 c 1
 793 1172 l 1
 750 1181 715 1186 683 1186 c 0
 610 1186 519 1133 519 1050 c 0
 519 993 562 935 600 905 c 0
 616 892 620 887 631 876 c 1
 641 878 l 1
 738 889 815 900 881 926 c 1
 894 879 l 1
 802 830 716 806 628 806 c 0
 536 806 454 828 387 869 c 2
 276 937 l 1
 331 818 l 1
 436 581 492 329 497 65 c 1
 460 65 l 1
 454 358 382 633 247 893 c 0
 210 961 172 1027 133 1089 c 1
 175 1123 l 1
 282 1010 370 940 447 909 c 2
 538 869 l 1
 499 961 l 2
 486 992 481 1021 481 1050 c 0
EndSplineSet
EndChar

StartChar: num.five
Encoding: 1781 1781 84
Width: 986
VWidth: 1584
GlyphClass: 2
Flags: HMW
LayerCount: 2
Back
Fore
SplineSet
470 975 m 2
 377 814 313 696 280 619 c 0
 217 474 183 363 183 278 c 0
 183 190 227 117 315 117 c 0
 373 117 419 143 447 192 c 0
 469 231 483 273 490 311 c 1
 532 311 l 1
 545 190 589 117 678 117 c 0
 780 117 827 201 827 334 c 0
 827 552 727 769 534 982 c 2
 497 1023 l 1
 470 975 l 2
504 200 m 1
 468 136 l 2
 433 75 384 46 317 46 c 0
 203 46 145 116 145 283 c 0
 145 373 167 473 215 582 c 0
 263 691 353 860 465 1055 c 1
 397 1116 l 1
 430 1162 l 1
 615 989 734 828 795 679 c 0
 843 566 865 453 865 338 c 0
 865 181 821 92 744 58 c 0
 726 51 703 46 678 46 c 0
 614 46 570 75 539 135 c 2
 504 200 l 1
EndSplineSet
EndChar

StartChar: num.six
Encoding: 1782 1782 85
Width: 986
VWidth: 1584
GlyphClass: 2
Flags: HMW
LayerCount: 2
Back
Fore
SplineSet
242 934 m 2
 242 782 406 715 598 715 c 0
 723 715 778 749 864 789 c 1
 886 728 l 1
 701 646 567 573 487 503 c 0
 405 431 316 325 215 186 c 0
 188 149 156 103 125 59 c 1
 90 94 l 1
 231 292 333 423 406 501 c 0
 436 532 466 559 496 585 c 2
 561 641 l 1
 476 656 l 2
 320 681 205 773 205 932 c 0
 205 996 239 1056 315 1114 c 0
 391 1172 460 1200 523 1200 c 0
 584 1200 653 1186 724 1160 c 1
 704 1098 l 1
 638 1121 581 1132 527 1132 c 0
 425 1132 242 1053 242 936 c 2
 242 934 l 2
EndSplineSet
EndChar

StartChar: As
Encoding: 65539 -1 89
Width: 176
VWidth: 1524
GlyphClass: 2
Flags: HMW
LayerCount: 2
Back
Fore
SplineSet
118 843 m 1
 118 60 l 1
 83 60 l 1
 83 843 l 1
 118 843 l 1
EndSplineSet
EndChar

StartChar: uniFE8D
Encoding: 65165 65165 90
Width: 443
VWidth: 1524
GlyphClass: 2
Flags: HMW
AnchorPoint: "Anchor-1" 229 -161 basechar 0
AnchorPoint: "Anchor-0" 183 1332 basechar 0
LayerCount: 2
Back
Fore
SplineSet
247 1121 m 1
 247 60 l 1
 188 60 l 1
 188 1121 l 1
 247 1121 l 1
EndSplineSet
PairPos2: "'kern' Horizontal Kerning in Arabic lookup 0 subtable" gaf_ye.farsi.isol dx=50 dy=0 dh=50 dv=0 dx=0 dy=0 dh=0 dv=0
PairPos2: "'kern' Horizontal Kerning in Arabic lookup 0 subtable" kaf.farsi_ye.farsi.isol dx=50 dy=0 dh=50 dv=0 dx=0 dy=0 dh=0 dv=0
PairPos2: "'kern' Horizontal Kerning in Arabic lookup 0 subtable" uniFEDB dx=50 dy=0 dh=50 dv=0 dx=0 dy=0 dh=0 dv=0
PairPos2: "'kern' Horizontal Kerning in Arabic lookup 0 subtable" uniFE83 dx=62 dy=0 dh=62 dv=0 dx=0 dy=0 dh=0 dv=0
PairPos2: "'kern' Horizontal Kerning in Arabic lookup 0 subtable" uniFE81 dx=62 dy=0 dh=62 dv=0 dx=0 dy=0 dh=0 dv=0
PairPos2: "'kern' Horizontal Kerning in Arabic lookup 0 subtable" kaf.init dx=50 dy=0 dh=50 dv=0 dx=0 dy=0 dh=0 dv=0
PairPos2: "'kern' Horizontal Kerning in Arabic lookup 0 subtable" uniFB8E dx=50 dy=0 dh=50 dv=0 dx=0 dy=0 dh=0 dv=0
PairPos2: "'kern' Horizontal Kerning in Arabic lookup 0 subtable" uniFB50 dx=62 dy=0 dh=62 dv=0 dx=0 dy=0 dh=0 dv=0
PairPos2: "'kern' Horizontal Kerning in Arabic lookup 0 subtable" gaf.init dx=50 dy=0 dh=50 dv=0 dx=0 dy=0 dh=0 dv=0
PairPos2: "'kern' Horizontal Kerning in Arabic lookup 0 subtable" uniFB92 dx=50 dy=0 dh=50 dv=0 dx=0 dy=0 dh=0 dv=0
EndChar

StartChar: Af
Encoding: 65540 -1 91
Width: 384
VWidth: 1524
GlyphClass: 2
Flags: HMW
LayerCount: 2
Back
Fore
SplineSet
118 273 m 2
 119 145 207 124 326 124 c 2
 391 124 l 1
 391 60 l 1
 337 60 l 2
 138 60 84 123 84 298 c 2
 84 843 l 1
 118 843 l 1
 118 273 l 2
EndSplineSet
EndChar

StartChar: alef.fina
Encoding: 65166 65166 92
Width: 483
VWidth: 1524
GlyphClass: 2
Flags: HMW
AnchorPoint: "Anchor-1" 229 -161 basechar 0
AnchorPoint: "Anchor-0" 171 1332 basechar 0
LayerCount: 2
Back
Fore
SplineSet
247 298 m 2
 247 185 329 130 465 130 c 2
 471 130 l 1
 471 60 l 1
 465 60 l 2
 271 60 188 123 188 248 c 2
 188 1121 l 1
 247 1121 l 1
 247 298 l 2
EndSplineSet
PairPos2: "'kern' Horizontal Kerning in Arabic lookup 0 subtable" gaf_ye.farsi.isol dx=50 dy=0 dh=50 dv=0 dx=0 dy=0 dh=0 dv=0
PairPos2: "'kern' Horizontal Kerning in Arabic lookup 0 subtable" kaf.farsi_ye.farsi.isol dx=50 dy=0 dh=50 dv=0 dx=0 dy=0 dh=0 dv=0
PairPos2: "'kern' Horizontal Kerning in Arabic lookup 0 subtable" uniFEDB dx=50 dy=0 dh=50 dv=0 dx=0 dy=0 dh=0 dv=0
PairPos2: "'kern' Horizontal Kerning in Arabic lookup 0 subtable" uniFE83 dx=62 dy=0 dh=62 dv=0 dx=0 dy=0 dh=0 dv=0
PairPos2: "'kern' Horizontal Kerning in Arabic lookup 0 subtable" uniFE81 dx=62 dy=0 dh=62 dv=0 dx=0 dy=0 dh=0 dv=0
PairPos2: "'kern' Horizontal Kerning in Arabic lookup 0 subtable" kaf.init dx=50 dy=0 dh=50 dv=0 dx=0 dy=0 dh=0 dv=0
PairPos2: "'kern' Horizontal Kerning in Arabic lookup 0 subtable" uniFB8E dx=50 dy=0 dh=50 dv=0 dx=0 dy=0 dh=0 dv=0
PairPos2: "'kern' Horizontal Kerning in Arabic lookup 0 subtable" uniFB50 dx=62 dy=0 dh=62 dv=0 dx=0 dy=0 dh=0 dv=0
PairPos2: "'kern' Horizontal Kerning in Arabic lookup 0 subtable" gaf.init dx=50 dy=0 dh=50 dv=0 dx=0 dy=0 dh=0 dv=0
PairPos2: "'kern' Horizontal Kerning in Arabic lookup 0 subtable" uniFB92 dx=50 dy=0 dh=50 dv=0 dx=0 dy=0 dh=0 dv=0
EndChar

StartChar: Bs
Encoding: 65541 -1 93
Width: 1578
VWidth: 1524
GlyphClass: 2
Flags: HMW
LayerCount: 2
Back
Fore
SplineSet
180 569 m 1
 158 499 120 392 120 298 c 0
 120 227 171 179 258 147 c 0
 345 115 450 100 581 100 c 0
 797 100 1025 129 1270 186 c 0
 1359 207 1410 222 1431 235 c 0
 1448 246 1477 256 1477 293 c 0
 1477 355 1456 451 1417 575 c 1
 1461 579 l 1
 1500 453 1520 364 1520 310 c 0
 1520 252 1507 216 1490 201 c 0
 1454 167 1332 128 1125 89 c 0
 918 50 758 31 644 31 c 0
 254 31 79 129 79 304 c 0
 79 378 98 471 136 578 c 1
 180 569 l 1
EndSplineSet
EndChar

StartChar: Bf
Encoding: 65542 -1 94
Width: 1713
VWidth: 1524
GlyphClass: 2
Flags: HMW
LayerCount: 2
Back
Fore
SplineSet
136 578 m 1
 179 569 l 1
 156 498 120 392 120 298 c 0
 120 227 171 179 258 147 c 0
 345 115 454 100 591 100 c 0
 728 100 887 114 1065 144 c 0
 1355 193 1443 242 1496 462 c 1
 1531 448 l 1
 1504 356 1492 307 1492 281 c 0
 1492 158 1608 134 1720 130 c 1
 1720 60 l 1
 1579 66 1502 106 1471 171 c 2
 1450 219 l 1
 1410 186 l 2
 1352 138 1194 91 935 55 c 0
 822 39 740 31 691 31 c 2
 611 31 l 2
 436 31 303 55 212 102 c 0
 121 149 79 210 79 292 c 0
 79 374 99 471 136 578 c 1
EndSplineSet
EndChar

StartChar: Bi
Encoding: 65543 -1 95
Width: 425
VWidth: 1524
GlyphClass: 2
Flags: HMW
LayerCount: 2
Back
Fore
SplineSet
58 130 m 2
 168 130 323 159 323 278 c 0
 323 337 301 433 264 559 c 1
 317 563 l 1
 356 438 376 346 376 284 c 0
 376 135 221 60 58 60 c 2
 -5 60 l 2
 -9 60 -16 60 -20 61 c 1
 -20 130 l 1
 58 130 l 2
EndSplineSet
EndChar

StartChar: Bm
Encoding: 65544 -1 96
Width: 499
VWidth: 1524
GlyphClass: 2
Flags: HMW
LayerCount: 2
Back
Fore
SplineSet
254 432 m 1
 293 432 l 1
 293 298 l 2
 293 168 387 138 506 131 c 1
 506 60 l 1
 391 65 325 92 298 129 c 2
 270 169 l 1
 237 132 l 2
 196 86 125 60 22 60 c 2
 -5 60 l 2
 -9 60 -16 60 -20 61 c 1
 -20 130 l 1
 22 130 l 2
 141 130 254 174 254 296 c 2
 254 432 l 1
EndSplineSet
EndChar

StartChar: Js
Encoding: 65545 -1 97
Width: 1000
VWidth: 1524
GlyphClass: 2
Flags: HMW
LayerCount: 2
Back
Fore
SplineSet
515 -377 m 2
 512 -377 l 2
 227 -377 79 -240 79 50 c 0
 79 242 222 396 528 506 c 1
 613 535 l 1
 330 690 l 1
 328 690 l 1
 292 707 267 716 245 716 c 0
 221 716 201 702 186 683 c 2
 110 600 l 1
 90 620 l 1
 162 736 l 1
 180 758 l 2
 193 774 214 786 250 786 c 0
 268 786 303 775 350 750 c 2
 610 610 l 1
 612 610 l 1
 667 585 733 573 813 573 c 0
 834 573 851 573 868 572 c 2
 942 572 l 1
 942 502 l 1
 881 502 l 2
 742 502 598 471 451 414 c 0
 239 329 124 213 124 58 c 0
 124 -186 282 -307 515 -307 c 0
 659 -307 787 -292 892 -267 c 1
 903 -316 l 1
 771 -357 646 -377 515 -377 c 2
EndSplineSet
EndChar

StartChar: Jf
Encoding: 65546 -1 98
Width: 1063
VWidth: 1524
GlyphClass: 2
Flags: HMW
LayerCount: 2
Back
Fore
SplineSet
515 -377 m 2
 512 -377 l 2
 227 -377 79 -240 79 50 c 0
 79 242 222 396 528 506 c 1
 613 535 l 1
 330 690 l 1
 328 690 l 1
 292 707 267 716 245 716 c 0
 221 716 201 702 186 683 c 2
 110 600 l 1
 90 620 l 1
 162 736 l 1
 180 758 l 2
 193 774 214 786 250 786 c 0
 268 786 303 775 350 750 c 2
 610 610 l 1
 612 610 l 1
 667 585 733 573 813 573 c 0
 834 573 851 573 868 572 c 2
 942 572 l 1
 942 502 l 1
 805 502 l 1
 879 296 l 2
 911 208 964 145 1070 133 c 1
 1070 62 l 1
 939 76 876 157 844 283 c 2
 785 496 l 1
 768 494 l 1
 767 494 l 1
 444 441 239 345 156 196 c 0
 133 156 123 113 123 66 c 0
 124 -182 271 -307 542 -307 c 0
 671 -307 788 -293 892 -267 c 1
 903 -316 l 1
 771 -357 646 -377 515 -377 c 2
EndSplineSet
EndChar

StartChar: Ji
Encoding: 65547 -1 99
Width: 1081
VWidth: 1524
GlyphClass: 2
Flags: HMW
LayerCount: 2
Back
Fore
SplineSet
866 408 m 0
 919 407 966 406 1007 406 c 2
 1023 406 l 1
 1023 336 l 1
 965 336 l 2
 908 336 852 318 805 286 c 1
 804 286 l 1
 798 282 l 1
 682 192 584 132 509 104 c 0
 431 74 372 60 332 60 c 2
 -5 60 l 2
 -9 60 -16 60 -20 61 c 1
 -20 130 l 1
 332 130 l 2
 425 130 532 173 656 252 c 0
 686 271 712 288 730 304 c 2
 775 343 l 1
 722 370 l 2
 707 378 691 383 688 385 c 2
 687 387 l 1
 407 550 l 1
 404 550 l 1
 371 567 345 576 321 576 c 0
 296 576 271 564 252 542 c 2
 177 461 l 1
 156 481 l 1
 233 597 l 2
 258 630 292 646 339 646 c 0
 358 646 388 635 429 609 c 2
 702 448 l 1
 705 448 l 1
 760 423 811 409 866 408 c 0
EndSplineSet
EndChar

StartChar: Jm
Encoding: 65548 -1 100
Width: 1152
VWidth: 1524
GlyphClass: 2
Flags: HMW
LayerCount: 2
Back
Fore
SplineSet
856 325 m 1
 890 254 l 2
 936 153 1027 133 1159 130 c 1
 1159 60 l 1
 1058 63 993 75 958 94 c 0
 921 113 889 156 864 229 c 2
 836 312 l 1
 792 280 l 2
 667 188 578 131 529 112 c 0
 441 76 373 60 326 60 c 2
 -5 60 l 2
 -9 60 -16 60 -20 61 c 1
 -20 130 l 1
 326 130 l 2
 419 130 526 173 650 252 c 0
 680 271 705 288 723 303 c 2
 770 342 l 1
 715 370 l 2
 692 380 683 386 678 389 c 2
 402 550 l 1
 399 550 l 1
 366 567 339 576 315 576 c 0
 287 576 263 561 246 540 c 2
 173 461 l 1
 152 482 l 1
 228 597 l 2
 251 629 286 646 333 646 c 0
 352 646 382 635 424 609 c 2
 697 449 l 1
 699 449 l 1
 754 423 807 409 863 408 c 0
 916 407 962 406 1003 406 c 2
 1018 406 l 1
 1018 336 l 1
 959 336 l 2
 943 336 925 334 912 332 c 2
 856 325 l 1
EndSplineSet
EndChar

StartChar: Ds
Encoding: 65549 -1 101
Width: 715
VWidth: 1524
GlyphClass: 2
Flags: HMW
LayerCount: 2
Back
Fore
SplineSet
112 117 m 1
 151 103 194 99 240 99 c 0
 353 99 475 128 532 152 c 0
 580 171 616 196 616 235 c 0
 616 397 539 556 391 708 c 1
 424 756 l 1
 547 636 665 484 665 259 c 0
 665 180 648 127 554 84 c 0
 458 39 333 32 252 32 c 0
 181 32 124 42 85 57 c 1
 112 117 l 1
EndSplineSet
EndChar

StartChar: Df
Encoding: 65550 -1 102
Width: 894
VWidth: 1524
GlyphClass: 2
Flags: HMW
LayerCount: 2
Back
Fore
SplineSet
901 60 m 1
 781 65 753 97 683 178 c 1
 654 161 l 1
 520 76 371 32 204 32 c 0
 162 32 121 41 85 56 c 1
 112 118 l 1
 145 108 186 103 235 103 c 0
 365 103 515 142 648 225 c 1
 656 229 l 1
 642 257 577 389 414 725 c 1
 454 751 l 1
 665 314 l 2
 701 241 738 193 777 168 c 0
 810 147 852 135 901 131 c 1
 901 60 l 1
EndSplineSet
EndChar

StartChar: Rs
Encoding: 65551 -1 103
Width: 726
VWidth: 1524
GlyphClass: 2
Flags: HMW
LayerCount: 2
Back
Fore
SplineSet
83 -351 m 1
 372 -232 622 -111 622 136 c 0
 622 223 577 372 545 439 c 1
 593 480 l 1
 635 401 680 252 680 119 c 0
 680 -145 369 -311 103 -419 c 1
 83 -351 l 1
EndSplineSet
EndChar

StartChar: Rf
Encoding: 65552 -1 104
Width: 901
VWidth: 1524
GlyphClass: 2
Flags: HMW
LayerCount: 2
Back
Fore
SplineSet
582 411 m 1
 634 439 l 1
 679 296 724 150 908 132 c 1
 908 61 l 1
 824 66 767 83 728 112 c 2
 676 149 l 1
 633 -66 532 -189 200 -352 c 0
 169 -365 136 -379 107 -392 c 1
 85 -333 l 1
 118 -318 145 -304 177 -289 c 0
 347 -214 463 -144 531 -78 c 1
 603 4 630 98 630 194 c 0
 630 265 608 340 582 411 c 1
EndSplineSet
EndChar

StartChar: Ss
Encoding: 65553 -1 105
Width: 1875
VWidth: 1524
GlyphClass: 2
Flags: HMW
LayerCount: 2
Back
Fore
SplineSet
1390 372 m 1
 1390 292 l 2
 1392 189 1462 130 1571 130 c 0
 1666 130 1763 181 1775 274 c 1
 1775 278 l 2
 1775 334 1753 428 1714 559 c 1
 1758 563 l 1
 1808 408 1817 371 1817 269 c 0
 1817 154 1719 60 1571 60 c 0
 1494 60 1430 88 1392 142 c 2
 1363 186 l 1
 1328 142 l 2
 1287 86 1234 60 1169 60 c 0
 1121 60 1084 66 1061 76 c 2
 1005 103 l 1
 1005 30 l 2
 1005 -247 705 -352 395 -352 c 0
 198 -352 79 -267 79 -83 c 0
 79 12 115 132 186 276 c 1
 214 264 l 1
 154 128 125 23 125 -62 c 0
 125 -169 149 -200 216 -246 c 0
 255 -273 308 -284 371 -284 c 0
 663 -283 855 -230 935 -111 c 1
 936 -110 l 1
 955 -68 964 -22 964 28 c 0
 964 105 930 197 867 300 c 1
 907 330 l 1
 936 287 l 2
 967 237 1000 199 1033 172 c 0
 1068 143 1111 130 1164 130 c 0
 1219 130 1262 150 1297 188 c 0
 1330 224 1349 261 1349 298 c 2
 1349 372 l 1
 1390 372 l 1
EndSplineSet
EndChar

StartChar: Sf
Encoding: 65554 -1 106
Width: 1994
VWidth: 1524
GlyphClass: 2
Flags: HMW
LayerCount: 2
Back
Fore
SplineSet
1959 60 m 2
 1881 60 1818 96 1787 148 c 1
 1785 148 l 1
 1756 191 l 1
 1723 146 l 2
 1681 87 1626 60 1555 60 c 0
 1484 60 1430 87 1392 142 c 2
 1360 186 l 1
 1328 142 l 2
 1287 86 1235 60 1169 60 c 0
 1121 60 1084 66 1061 76 c 2
 1005 103 l 1
 1005 30 l 2
 1005 -247 705 -352 395 -352 c 0
 198 -352 79 -267 79 -83 c 0
 79 12 115 132 186 276 c 1
 214 264 l 1
 154 128 125 23 125 -62 c 0
 125 -168 149 -200 216 -246 c 0
 255 -273 308 -284 371 -284 c 0
 663 -283 855 -230 935 -111 c 1
 936 -110 l 1
 955 -68 964 -22 964 28 c 0
 964 105 930 197 867 300 c 1
 907 330 l 1
 936 287 l 2
 967 237 1000 199 1033 172 c 0
 1068 143 1111 130 1164 130 c 0
 1219 130 1262 150 1297 188 c 0
 1330 224 1349 261 1349 298 c 2
 1349 372 l 1
 1390 372 l 1
 1390 292 l 2
 1391 185 1463 130 1583 130 c 0
 1660 130 1746 228 1746 302 c 2
 1746 372 l 1
 1786 372 l 1
 1786 295 l 2
 1786 218 1826 164 1898 139 c 0
 1915 133 1934 129 1951 129 c 0
 1955 129 1959 130 1962 130 c 2
 2001 130 l 1
 2001 60 l 1
 1959 60 l 2
EndSplineSet
EndChar

StartChar: Si
Encoding: 65555 -1 107
Width: 1455
VWidth: 1524
GlyphClass: 2
Flags: HMW
LayerCount: 2
Back
Fore
SplineSet
919 372 m 1
 919 292 l 2
 919 186 1002 130 1101 130 c 0
 1187 130 1300 183 1302 278 c 0
 1302 339 1280 435 1243 559 c 1
 1289 563 l 1
 1328 440 1347 350 1347 290 c 0
 1347 159 1266 60 1108 60 c 2
 1106 60 l 2
 1034 60 956 90 921 141 c 2
 892 186 l 1
 857 142 l 2
 816 86 760 60 687 60 c 0
 612 60 561 86 526 137 c 2
 494 185 l 1
 462 137 l 2
 435 98 360 60 284 60 c 2
 -5 60 l 2
 -9 60 -16 60 -20 61 c 1
 -20 130 l 1
 284 130 l 2
 337 130 385 149 424 187 c 0
 461 223 483 258 484 294 c 2
 484 372 l 1
 525 372 l 1
 525 288 l 2
 525 187 600 130 698 130 c 0
 750 130 792 149 827 188 c 0
 860 225 879 261 880 298 c 2
 880 372 l 1
 919 372 l 1
EndSplineSet
EndChar

StartChar: Sm
Encoding: 65556 -1 108
Width: 1543
VWidth: 1524
GlyphClass: 2
Flags: HMW
LayerCount: 2
Back
Fore
SplineSet
1488 60 m 2
 1416 60 1346 98 1316 148 c 1
 1314 148 l 1
 1285 191 l 1
 1252 146 l 2
 1210 87 1154 60 1083 60 c 0
 1012 60 959 88 921 142 c 2
 892 186 l 1
 857 142 l 2
 816 86 759 60 687 60 c 0
 615 60 562 86 526 137 c 2
 494 185 l 1
 462 137 l 2
 435 97 361 60 284 60 c 2
 -5 60 l 2
 -9 60 -16 60 -20 61 c 1
 -20 130 l 1
 284 130 l 2
 337 130 385 149 424 187 c 0
 461 223 483 258 484 294 c 2
 484 372 l 1
 525 372 l 1
 525 288 l 2
 525 186 600 130 698 130 c 0
 750 130 792 150 827 188 c 0
 860 224 880 260 880 298 c 2
 880 372 l 1
 919 372 l 1
 919 292 l 2
 919 187 1002 130 1098 130 c 0
 1147 130 1191 149 1225 188 c 0
 1257 225 1274 265 1274 302 c 2
 1274 372 l 1
 1314 372 l 1
 1314 295 l 2
 1316 194 1393 130 1488 130 c 2
 1530 130 l 1
 1530 60 l 1
 1488 60 l 2
EndSplineSet
EndChar

StartChar: Zs
Encoding: 65557 -1 109
Width: 2008
VWidth: 1524
GlyphClass: 2
Flags: HMW
LayerCount: 2
Back
Fore
SplineSet
1433 130 m 2
 1578 130 1693 151 1777 196 c 0
 1861 241 1907 299 1907 372 c 0
 1907 469 1809 542 1736 542 c 0
 1629 542 1513 465 1380 317 c 0
 1345 277 1310 235 1277 194 c 2
 1225 130 l 1
 1433 130 l 2
1005 103 m 1
 1005 30 l 2
 1005 -247 705 -352 395 -352 c 0
 198 -352 79 -267 79 -83 c 0
 79 12 115 132 186 276 c 1
 214 264 l 1
 154 128 125 23 125 -62 c 0
 125 -168 149 -200 216 -246 c 0
 255 -273 308 -284 371 -284 c 0
 663 -283 855 -230 935 -111 c 1
 936 -110 l 1
 955 -68 964 -22 964 28 c 0
 964 105 930 197 867 300 c 1
 907 330 l 1
 934 287 l 2
 992 191 1062 135 1145 133 c 2
 1166 133 l 1
 1315 332 1447 473 1544 542 c 0
 1603 583 1671 603 1734 603 c 0
 1855 603 1954 532 1954 387 c 0
 1954 157 1698 60 1433 60 c 2
 1179 60 l 2
 1124 60 1083 66 1061 76 c 2
 1005 103 l 1
EndSplineSet
EndChar

StartChar: Zf
Encoding: 65558 -1 110
Width: 2091
VWidth: 1524
GlyphClass: 2
Flags: HMW
LayerCount: 2
Back
Fore
SplineSet
1761 123 m 1
 1672 78 1557 60 1435 60 c 2
 1180 60 l 2
 1125 60 1083 66 1061 76 c 2
 1005 103 l 1
 1005 30 l 2
 1005 -247 705 -352 395 -352 c 0
 198 -352 79 -267 79 -83 c 0
 79 12 115 132 186 276 c 1
 214 264 l 1
 154 128 125 23 125 -62 c 0
 125 -217 218 -284 371 -284 c 0
 663 -283 855 -230 935 -111 c 1
 936 -110 l 1
 955 -68 964 -22 964 28 c 0
 964 105 930 197 867 300 c 1
 907 330 l 1
 934 287 l 2
 992 191 1063 135 1147 133 c 2
 1168 133 l 1
 1315 329 1449 470 1550 539 c 0
 1624 588 1678 605 1735 605 c 0
 1867 605 1951 496 1951 392 c 0
 1951 340 1927 261 1884 209 c 2
 1844 161 l 1
 1903 145 l 2
 1937 136 2005 131 2098 130 c 1
 2098 60 l 1
 2047 60 2016 61 1997 64 c 2
 1930 72 l 2
 1882 78 1818 94 1761 123 c 1
1435 130 m 2
 1579 130 1694 151 1778 196 c 0
 1862 241 1908 301 1908 375 c 0
 1908 471 1810 542 1738 542 c 0
 1662 542 1584 508 1509 443 c 0
 1434 378 1358 294 1278 194 c 2
 1226 130 l 1
 1435 130 l 2
EndSplineSet
EndChar

StartChar: Zi
Encoding: 65559 -1 111
Width: 1403
VWidth: 1524
GlyphClass: 2
Flags: HMW
LayerCount: 2
Back
Fore
SplineSet
850 436 m 0
 774 371 698 288 623 190 c 2
 572 126 l 1
 778 126 l 2
 997 126 1146 171 1218 270 c 0
 1240 299 1252 333 1252 368 c 0
 1252 451 1169 536 1081 536 c 2
 1079 536 l 2
 1003 536 926 502 850 436 c 0
305 372 m 1
 346 372 l 1
 346 294 l 2
 347 211 395 128 492 128 c 2
 512 128 l 1
 630 285 739 409 837 490 c 0
 933 570 1011 601 1070 601 c 0
 1221 601 1295 499 1295 363 c 0
 1295 143 1026 54 778 54 c 2
 518 54 l 2
 448 54 378 92 348 137 c 2
 315 186 l 1
 282 137 l 2
 258 100 177 60 105 60 c 2
 -5 60 l 2
 -9 60 -16 60 -20 61 c 1
 -20 130 l 1
 105 130 l 2
 190 130 305 200 305 290 c 2
 305 372 l 1
EndSplineSet
EndChar

StartChar: Zm
Encoding: 65560 -1 112
Width: 1455
VWidth: 1524
GlyphClass: 2
Flags: HMW
LayerCount: 2
Back
Fore
SplineSet
1100 119 m 1
 1007 72 892 54 775 54 c 2
 514 54 l 2
 444 54 375 92 343 138 c 2
 311 183 l 1
 278 137 l 1
 278 136 l 1
 254 98 173 60 102 60 c 2
 -5 60 l 2
 -9 60 -16 60 -20 61 c 1
 -20 130 l 1
 102 130 l 2
 188 130 301 210 301 294 c 2
 301 372 l 1
 342 372 l 1
 342 288 l 2
 343 215 376 163 439 138 c 1
 440 138 l 1
 455 133 471 128 488 128 c 2
 508 128 l 1
 653 322 784 463 890 536 c 0
 962 585 1024 601 1082 601 c 0
 1167 601 1292 531 1292 377 c 0
 1292 326 1267 257 1224 205 c 2
 1183 156 l 1
 1246 141 l 2
 1275 134 1340 131 1443 130 c 1
 1443 60 l 1
 1253 62 1201 69 1100 119 c 1
775 126 m 2
 922 126 1037 147 1120 192 c 0
 1201 237 1248 293 1248 360 c 0
 1248 445 1181 537 1067 537 c 0
 942 537 794 416 619 190 c 2
 568 126 l 1
 775 126 l 2
EndSplineSet
EndChar

StartChar: Ts
Encoding: 65561 -1 113
Width: 1085
VWidth: 1524
GlyphClass: 2
Flags: HMW
LayerCount: 2
Back
Fore
SplineSet
504 126 m 0
 651 126 769 147 853 192 c 0
 935 237 983 293 983 360 c 0
 983 446 910 538 797 538 c 0
 761 538 720 526 671 506 c 0
 622 484 569 451 512 408 c 0
 453 363 382 292 297 195 c 2
 239 132 l 1
 283 130 l 2
 354 127 429 126 504 126 c 0
475 54 m 0
 301 54 169 67 83 90 c 1
 102 154 l 1
 124 148 145 144 169 141 c 2
 180 141 l 1
 227 196 l 1
 227 1121 l 1
 268 1121 l 1
 268 244 l 1
 337 317 l 2
 517 513 677 608 805 608 c 0
 933 608 1028 519 1028 382 c 0
 1028 138 755 54 475 54 c 0
EndSplineSet
EndChar

StartChar: Tf
Encoding: 65562 -1 114
Width: 1174
VWidth: 1524
GlyphClass: 2
Flags: HMW
LayerCount: 2
Back
Fore
SplineSet
505 126 m 2
 652 126 768 147 853 192 c 0
 936 237 985 295 986 367 c 0
 984 465 886 537 809 537 c 0
 722 537 637 504 553 438 c 0
 469 374 384 292 299 195 c 2
 241 132 l 1
 327 128 l 2
 357 127 388 126 419 126 c 2
 505 126 l 2
832 119 m 1
 738 72 620 54 492 54 c 0
 308 54 169 67 83 90 c 1
 102 156 l 1
 135 147 155 143 182 138 c 1
 229 195 l 1
 229 1121 l 1
 270 1121 l 1
 270 244 l 1
 339 317 l 1
 518 513 680 608 815 608 c 0
 922 608 1032 503 1032 383 c 0
 1032 328 1005 257 958 205 c 2
 911 154 l 1
 979 138 l 2
 1006 133 1039 130 1080 130 c 2
 1181 130 l 1
 1181 60 l 1
 997 60 926 72 832 119 c 1
EndSplineSet
EndChar

StartChar: Ti
Encoding: 65563 -1 115
Width: 1114
VWidth: 1524
GlyphClass: 2
Flags: HMW
LayerCount: 2
Back
Fore
SplineSet
219 130 m 1
 484 130 l 2
 678 130 964 176 964 360 c 0
 964 445 894 539 781 539 c 0
 746 539 703 526 651 504 c 0
 539 454 415 353 276 197 c 1
 219 130 l 1
-5 60 m 2
 -9 60 -16 60 -20 61 c 1
 -20 130 l 1
 153 130 l 1
 208 195 l 1
 208 1121 l 1
 248 1121 l 1
 248 244 l 1
 317 317 l 2
 500 513 652 601 785 601 c 0
 902 601 1005 502 1005 370 c 0
 1005 166 751 60 484 60 c 2
 -5 60 l 2
EndSplineSet
EndChar

StartChar: Tm
Encoding: 65564 -1 116
Width: 1170
VWidth: 1524
GlyphClass: 2
Flags: HMW
LayerCount: 2
Back
Fore
SplineSet
1159 60 m 1
 967 60 912 66 807 119 c 1
 724 77 611 60 486 60 c 2
 -5 60 l 2
 -9 60 -16 60 -20 61 c 1
 -20 130 l 1
 154 130 l 1
 209 195 l 1
 209 1121 l 1
 250 1121 l 1
 250 244 l 1
 319 317 l 2
 406 411 476 476 529 509 c 0
 634 576 720 602 785 602 c 0
 905 602 1013 506 1013 370 c 0
 1013 321 979 249 938 205 c 2
 891 154 l 1
 959 138 l 2
 986 133 1018 130 1059 130 c 2
 1159 130 l 1
 1159 60 l 1
486 130 m 2
 633 130 751 151 835 194 c 0
 917 237 965 292 965 360 c 0
 965 454 886 537 777 537 c 0
 740 537 699 525 652 504 c 0
 542 455 418 354 278 197 c 1
 221 130 l 1
 486 130 l 2
EndSplineSet
EndChar

StartChar: Is
Encoding: 65565 -1 117
Width: 826
VWidth: 1524
GlyphClass: 2
Flags: HMW
LayerCount: 2
Back
Fore
SplineSet
717 550 m 1
 729 490 l 1
 333 369 124 190 124 -58 c 0
 124 -254 382 -314 591 -314 c 0
 623 -314 680 -313 757 -310 c 1
 766 -357 l 1
 699 -376 647 -385 603 -385 c 0
 468 -385 366 -368 301 -336 c 0
 166 -270 79 -207 79 -56 c 0
 79 107 155 250 310 379 c 1
 354 414 l 1
 309 443 l 2
 229 498 187 577 187 680 c 0
 187 788 289 889 392 889 c 2
 394 889 l 2
 459 889 527 876 594 853 c 1
 580 810 l 1
 535 819 477 823 403 823 c 0
 333 823 229 759 229 678 c 0
 229 581 299 509 422 457 c 1
 438 449 l 1
 510 485 604 519 717 550 c 1
EndSplineSet
EndChar

StartChar: If
Encoding: 65566 -1 118
Width: 854
VWidth: 1524
GlyphClass: 2
Flags: HMW
LayerCount: 2
Back
Fore
SplineSet
705 582 m 0
 705 529 657 468 573 412 c 1
 579 397 l 1
 637 234 683 146 861 132 c 1
 861 60 l 1
 780 64 726 79 693 101 c 0
 636 140 586 225 545 360 c 2
 533 400 l 1
 492 385 l 1
 345 325 124 167 124 -53 c 0
 124 -113 152 -165 203 -208 c 0
 278 -268 396 -296 557 -297 c 0
 600 -297 664 -296 744 -293 c 1
 748 -350 l 1
 691 -363 637 -368 579 -368 c 2
 572 -368 l 2
 374 -368 239 -326 162 -249 c 0
 107 -194 80 -128 79 -53 c 0
 79 96 149 229 296 350 c 0
 348 389 411 424 480 453 c 2
 520 469 l 1
 500 508 l 2
 476 557 431 585 377 594 c 1
 374 644 l 1
 451 673 509 687 552 687 c 0
 637 687 705 649 705 582 c 0
EndSplineSet
EndChar

StartChar: Ii
Encoding: 65567 -1 119
Width: 867
VWidth: 1524
GlyphClass: 2
Flags: HMW
LayerCount: 2
Back
Fore
SplineSet
457 199 m 1
 465 199 l 1
 758 294 l 1
 773 227 l 1
 720 208 672 190 622 173 c 0
 406 96 218 60 65 60 c 2
 -5 60 l 2
 -9 60 -16 60 -20 61 c 1
 -20 130 l 1
 65 130 l 2
 143 130 210 136 270 147 c 2
 351 166 l 1
 287 218 l 2
 205 286 166 373 166 481 c 0
 166 526 189 573 241 620 c 0
 292 665 351 688 423 688 c 0
 491 688 566 678 643 659 c 1
 628 590 l 1
 545 609 483 618 431 618 c 0
 349 618 209 577 209 481 c 0
 209 429 228 378 264 328 c 0
 299 278 368 225 457 199 c 1
EndSplineSet
EndChar

StartChar: Im
Encoding: 65568 -1 120
Width: 667
VWidth: 1524
GlyphClass: 2
Flags: HMW
LayerCount: 2
Back
Fore
SplineSet
400 250 m 1
 465 163 532 134 656 130 c 1
 656 60 l 1
 517 66 451 99 397 173 c 2
 372 209 l 1
 337 178 l 2
 271 115 198 81 124 69 c 1
 121 69 l 1
 96 63 71 60 50 60 c 2
 -5 60 l 2
 -9 60 -16 60 -20 61 c 1
 -20 130 l 1
 50 130 l 2
 168 130 263 177 344 258 c 1
 338 271 l 1
 338 272 l 1
 294 350 239 405 164 419 c 1
 161 465 l 1
 259 500 323 515 365 515 c 0
 448 515 511 478 511 412 c 0
 511 380 501 352 474 324 c 0
 435 283 426 269 400 250 c 1
EndSplineSet
EndChar

StartChar: Fs
Encoding: 65569 -1 121
Width: 1512
VWidth: 1524
GlyphClass: 2
Flags: HMW
LayerCount: 2
Back
Fore
SplineSet
564 100 m 0
 927 100 1185 124 1337 189 c 1
 1379 212 1400 264 1410 336 c 2
 1418 401 l 1
 1357 378 l 2
 1331 369 1296 364 1255 364 c 0
 1101 364 1038 413 1038 509 c 0
 1038 574 1053 631 1080 681 c 0
 1124 762 1164 794 1198 794 c 0
 1255 794 1308 769 1359 714 c 0
 1422 649 1454 570 1454 474 c 0
 1454 283 1427 176 1388 145 c 0
 1328 97 1154 58 870 39 c 0
 798 34 747 32 712 32 c 2
 567 32 l 2
 504 32 431 40 345 56 c 0
 197 84 79 156 79 312 c 0
 79 381 97 471 135 578 c 1
 179 569 l 1
 156 498 120 392 120 298 c 0
 120 127 403 100 564 100 c 0
1200 726 m 0
 1175 726 1152 713 1136 692 c 0
 1100 645 1081 584 1079 509 c 0
 1079 435 1184 434 1250 434 c 0
 1263 434 1277 434 1290 434 c 0
 1314 434 1370 452 1416 472 c 1
 1399 591 1348 673 1264 710 c 0
 1243 719 1223 726 1200 726 c 0
EndSplineSet
EndChar

StartChar: Ff
Encoding: 65570 -1 122
Width: 1535
VWidth: 1524
GlyphClass: 2
Flags: HMW
LayerCount: 2
Back
Fore
SplineSet
1096 394 m 0
 1096 358 1104 325 1124 300 c 0
 1143 276 1181 242 1223 214 c 1
 1245 229 l 1
 1338 286 1395 344 1395 408 c 0
 1395 469 1354 562 1283 565 c 1
 1205 563 1096 478 1096 394 c 0
1542 60 m 1
 1424 65 1319 95 1222 143 c 1
 1214 139 l 1
 1053 68 841 31 581 31 c 2
 575 31 l 2
 332 31 79 100 79 292 c 0
 79 374 99 471 136 578 c 1
 179 569 l 1
 158 504 120 390 120 306 c 0
 120 160 302 100 615 100 c 0
 768 100 925 121 1090 163 c 2
 1156 179 l 1
 1110 229 l 2
 1073 270 1055 323 1055 394 c 0
 1055 461 1095 527 1186 594 c 0
 1223 621 1258 633 1289 633 c 0
 1316 633 1349 614 1384 566 c 0
 1419 520 1436 466 1436 406 c 0
 1436 350 1406 289 1339 226 c 2
 1286 174 l 1
 1358 158 l 2
 1421 143 1485 134 1542 131 c 1
 1542 60 l 1
EndSplineSet
EndChar

StartChar: Fi
Encoding: 65571 -1 123
Width: 667
VWidth: 1524
GlyphClass: 2
Flags: HMW
LayerCount: 2
Back
Fore
SplineSet
305 724 m 0
 282 724 263 714 248 697 c 0
 203 644 183 581 183 507 c 0
 183 433 276 432 333 432 c 2
 353 432 l 2
 407 432 469 448 522 471 c 1
 505 590 454 671 369 708 c 0
 347 717 326 724 305 724 c 0
463 377 m 2
 434 367 400 362 361 362 c 0
 206 362 143 411 143 507 c 0
 143 628 219 792 315 792 c 0
 361 792 415 764 474 702 c 0
 531 642 560 556 560 441 c 0
 560 270 534 173 497 144 c 0
 429 91 278 60 46 60 c 2
 -5 60 l 2
 -9 60 -16 60 -20 61 c 1
 -20 130 l 1
 46 130 l 2
 185 130 287 136 350 155 c 0
 474 190 496 207 516 335 c 2
 525 400 l 1
 463 377 l 2
EndSplineSet
EndChar

StartChar: Fm
Encoding: 65572 -1 124
Width: 667
VWidth: 1524
GlyphClass: 2
Flags: HMW
LayerCount: 2
Back
Fore
SplineSet
656 60 m 1
 531 65 424 92 333 138 c 1
 268 106 202 85 165 75 c 0
 127 65 82 60 34 60 c 2
 -5 60 l 2
 -9 60 -16 60 -20 61 c 1
 -20 130 l 1
 34 130 l 2
 93 130 150 138 207 154 c 2
 270 173 l 1
 223 221 l 2
 180 266 159 317 159 378 c 0
 159 437 184 492 241 550 c 0
 298 608 347 634 381 634 c 0
 464 634 540 510 540 405 c 0
 540 347 511 286 448 224 c 2
 396 173 l 1
 467 157 l 2
 527 143 592 133 656 130 c 1
 656 60 l 1
502 409 m 0
 502 473 453 564 377 564 c 0
 303 564 201 469 201 392 c 0
 201 288 282 251 340 205 c 1
 363 220 l 2
 451 274 502 336 502 409 c 0
EndSplineSet
EndChar

StartChar: Gs
Encoding: 65573 -1 125
Width: 1102
VWidth: 1524
GlyphClass: 2
Flags: HMW
LayerCount: 2
Back
Fore
SplineSet
1044 129 m 2
 1044 30 l 2
 1044 -247 709 -352 395 -352 c 0
 198 -352 79 -267 79 -83 c 0
 79 12 115 132 186 276 c 1
 214 264 l 1
 154 128 125 23 125 -62 c 0
 125 -168 149 -200 216 -246 c 0
 255 -273 308 -284 371 -284 c 0
 682 -282 885 -229 970 -111 c 1
 970 -110 l 1
 971 -110 l 1
 991 -68 1002 -22 1003 30 c 2
 1003 194 l 1
 951 178 l 2
 912 165 866 158 815 158 c 0
 671 158 613 205 613 298 c 0
 613 409 690 588 769 588 c 2
 771 588 l 2
 962 588 1044 363 1044 129 c 2
993 265 m 1
 973 347 941 413 906 455 c 0
 871 496 828 518 777 518 c 0
 685 518 654 375 654 306 c 0
 654 243 730 228 830 228 c 0
 885 228 941 245 993 265 c 1
EndSplineSet
EndChar

StartChar: Gf
Encoding: 65574 -1 126
Width: 1193
VWidth: 1524
GlyphClass: 2
Flags: HMW
LayerCount: 2
Back
Fore
SplineSet
1012 133 m 1
 1008 180 l 2
 996 363 937 473 816 473 c 0
 727 473 694 322 694 257 c 0
 694 222 718 195 754 178 c 0
 791 161 858 148 964 137 c 2
 1012 133 l 1
1009 69 m 1
 989 69 l 1
 802 78 654 114 654 255 c 0
 654 375 728 542 816 544 c 0
 960 544 1040 430 1048 171 c 1
 1051 136 l 1
 1090 131 1135 130 1178 130 c 2
 1200 130 l 1
 1200 60 l 1
 1168 60 1124 62 1070 65 c 2
 1052 65 l 1
 1049 25 l 1
 1040 -250 709 -352 395 -352 c 0
 198 -352 79 -267 79 -83 c 0
 79 12 115 132 186 276 c 1
 214 264 l 1
 154 128 125 23 125 -62 c 0
 125 -216 217 -284 371 -284 c 0
 608 -283 782 -252 897 -183 c 1
 897 -182 l 1
 898 -182 l 1
 970 -129 1009 -55 1009 32 c 2
 1009 69 l 1
EndSplineSet
EndChar

StartChar: Qs
Encoding: 65575 -1 127
Width: 1218
VWidth: 1524
GlyphClass: 2
Flags: HMW
LayerCount: 2
Back
Fore
SplineSet
572 40 m 0
 533 39 487 38 434 38 c 0
 319 38 219 57 139 89 c 1
 159 147 l 1
 239 121 338 110 462 110 c 0
 715 110 868 120 929 148 c 0
 992 176 1021 244 1021 339 c 2
 1021 1121 l 1
 1061 1121 l 1
 1061 339 l 2
 1061 200 1027 122 971 95 c 0
 923 71 787 50 572 40 c 0
671 578 m 0
 671 569 668 559 661 549 c 1
 665 556 667 566 667 574 c 0
 667 610 644 619 628 626 c 2
 591 644 l 2
 556 662 532 679 521 690 c 0
 511 701 506 712 506 728 c 0
 506 796 597 860 680 873 c 1
 680 851 l 1
 619 845 571 826 535 792 c 0
 521 778 509 758 509 736 c 0
 509 698 552 683 575 671 c 2
 614 652 l 2
 656 632 671 608 671 578 c 0
449 476 m 1
 528 480 594 498 641 529 c 1
 600 498 506 465 449 457 c 1
 449 476 l 1
EndSplineSet
EndChar

StartChar: Qf
Encoding: 65576 -1 128
Width: 1285
VWidth: 1524
GlyphClass: 2
Flags: HMW
LayerCount: 2
Back
Fore
SplineSet
671 578 m 0
 671 569 668 559 661 549 c 1
 665 556 667 566 667 574 c 0
 667 610 644 619 628 626 c 2
 591 644 l 2
 556 662 532 679 521 690 c 0
 511 701 506 712 506 728 c 0
 506 796 597 860 680 873 c 1
 680 851 l 1
 619 845 571 826 535 792 c 0
 521 778 509 758 509 736 c 0
 509 698 552 683 575 671 c 2
 614 652 l 2
 656 632 671 608 671 578 c 0
449 476 m 1
 528 480 594 498 641 529 c 1
 600 498 506 465 449 457 c 1
 449 476 l 1
900 75 m 0
 772 50 648 38 532 38 c 0
 343 38 251 46 140 90 c 1
 159 147 l 1
 238 121 338 110 462 110 c 0
 706 110 854 120 915 148 c 0
 978 176 1007 244 1007 339 c 2
 1007 1121 l 1
 1047 1121 l 1
 1047 392 l 2
 1047 304 1059 243 1089 208 c 0
 1136 155 1192 134 1274 130 c 1
 1274 60 l 1
 1166 64 1115 88 1069 144 c 2
 1034 184 l 1
 1005 142 l 2
 984 108 949 87 900 75 c 0
EndSplineSet
EndChar

StartChar: Ks
Encoding: 65577 -1 129
Width: 1694
VWidth: 1524
GlyphClass: 2
Flags: HMW
LayerCount: 2
Back
Fore
SplineSet
1022 678 m 1
 1028 748 l 1
 1078 719 l 2
 1264 610 1417 482 1417 309 c 0
 1417 132 1227 31 694 31 c 0
 541 31 368 54 276 102 c 0
 184 149 136 212 136 292 c 0
 136 374 159 471 198 578 c 1
 242 569 l 1
 219 500 183 391 183 298 c 0
 183 227 235 179 321 147 c 0
 410 114 569 93 703 93 c 0
 973 93 1375 93 1375 309 c 0
 1375 418 1291 519 1138 611 c 0
 1102 634 1061 656 1022 678 c 1
1075 787 m 2
 1029 756 l 1
 1037 834 l 1
 1201 944 1358 1038 1515 1117 c 0
 1552 1136 1586 1152 1618 1164 c 1
 1637 1097 l 1
 1480 1034 1293 932 1075 787 c 2
EndSplineSet
EndChar

StartChar: Kf
Encoding: 65578 -1 130
Width: 1794
VWidth: 1524
GlyphClass: 2
Flags: HMW
LayerCount: 2
Back
Fore
SplineSet
1022 678 m 1
 1028 747 l 1
 1077 719 l 1
 1240 620 1361 535 1434 462 c 0
 1509 387 1558 327 1581 286 c 0
 1627 204 1687 145 1783 132 c 1
 1783 63 l 1
 1684 76 1609 135 1552 248 c 0
 1538 274 1517 305 1487 340 c 2
 1419 423 l 1
 1416 315 l 2
 1414 204 1335 128 1162 81 c 0
 1056 52 962 36 879 34 c 0
 794 32 723 31 666 31 c 2
 623 31 l 2
 390 31 142 104 142 292 c 0
 142 374 162 471 199 578 c 1
 242 569 l 1
 234 543 225 513 211 473 c 0
 193 418 183 359 183 298 c 0
 183 227 234 179 320 147 c 0
 406 115 512 100 644 100 c 0
 881 100 1060 115 1181 144 c 0
 1302 173 1375 228 1375 309 c 0
 1375 418 1291 519 1138 611 c 0
 1102 634 1061 656 1022 678 c 1
1074 787 m 2
 1029 757 l 1
 1037 834 l 1
 1201 944 1358 1038 1515 1117 c 0
 1552 1136 1586 1152 1618 1164 c 1
 1637 1097 l 1
 1478 1034 1293 931 1074 787 c 2
EndSplineSet
EndChar

StartChar: Ki
Encoding: 65579 -1 131
Width: 765
VWidth: 1524
GlyphClass: 2
Flags: HMW
LayerCount: 2
Back
Fore
SplineSet
90 679 m 1
 96 747 l 1
 145 719 l 2
 258 654 333 600 372 556 c 0
 449 471 484 394 484 324 c 0
 484 286 478 255 469 234 c 0
 441 171 374 123 263 89 c 0
 200 70 146 60 101 60 c 2
 -3 60 l 2
 -8 60 -16 60 -20 61 c 1
 -20 130 l 1
 50 130 l 2
 210 130 325 157 396 217 c 0
 425 242 442 277 442 318 c 0
 442 391 401 461 325 526 c 0
 275 569 194 620 90 679 c 1
142 787 m 2
 97 757 l 1
 105 834 l 1
 271 945 427 1040 582 1117 c 0
 619 1136 655 1152 686 1164 c 1
 704 1097 l 1
 547 1034 361 932 142 787 c 2
EndSplineSet
EndChar

StartChar: Km
Encoding: 65580 -1 132
Width: 867
VWidth: 1524
GlyphClass: 2
Flags: HMW
LayerCount: 2
Back
Fore
SplineSet
90 679 m 1
 96 747 l 1
 144 719 l 2
 306 621 425 538 497 468 c 0
 571 396 620 336 645 290 c 0
 693 205 748 145 855 133 c 1
 855 63 l 1
 752 76 676 132 621 243 c 0
 599 288 577 310 555 342 c 2
 483 442 l 1
 483 318 l 2
 483 138 264 60 50 60 c 2
 -5 60 l 2
 -9 60 -16 60 -20 61 c 1
 -20 130 l 1
 50 130 l 2
 210 130 325 157 396 217 c 0
 425 242 442 277 442 318 c 0
 442 391 401 461 325 526 c 0
 275 569 194 620 90 679 c 1
141 787 m 1
 97 757 l 1
 105 834 l 1
 271 945 427 1040 582 1117 c 0
 619 1136 655 1152 686 1164 c 1
 704 1097 l 1
 545 1034 360 931 141 787 c 1
EndSplineSet
EndChar

StartChar: Ls
Encoding: 65581 -1 133
Width: 1205
VWidth: 1524
GlyphClass: 2
Flags: HMW
LayerCount: 2
Back
Fore
SplineSet
1051 1121 m 1
 1051 30 l 2
 1051 -247 751 -352 441 -352 c 0
 244 -352 125 -267 125 -83 c 0
 125 12 161 132 232 276 c 1
 260 264 l 1
 200 128 171 23 171 -62 c 0
 171 -168 195 -200 262 -246 c 0
 301 -273 354 -284 417 -284 c 0
 710 -283 901 -230 982 -111 c 0
 1001 -83 1011 -57 1011 -33 c 2
 1011 1121 l 1
 1051 1121 l 1
EndSplineSet
EndChar

StartChar: Lf
Encoding: 65582 -1 134
Width: 1285
VWidth: 1524
GlyphClass: 2
Flags: HMW
LayerCount: 2
Back
Fore
SplineSet
1051 126 m 1
 1051 30 l 2
 1051 -247 751 -352 441 -352 c 0
 244 -352 125 -267 125 -83 c 0
 125 12 161 132 232 276 c 1
 260 264 l 1
 200 128 171 23 171 -62 c 0
 171 -168 195 -200 262 -246 c 0
 301 -273 354 -284 417 -284 c 0
 710 -283 901 -230 982 -111 c 0
 1001 -83 1011 -57 1011 -33 c 2
 1011 1121 l 1
 1051 1121 l 1
 1051 302 l 2
 1051 193 1137 138 1274 130 c 1
 1274 60 l 1
 1206 64 1150 77 1108 98 c 2
 1051 126 l 1
EndSplineSet
EndChar

StartChar: Li
Encoding: 65583 -1 135
Width: 476
VWidth: 1524
GlyphClass: 2
Flags: HMW
LayerCount: 2
Back
Fore
SplineSet
-20 61 m 1
 -20 130 l 1
 71 130 l 2
 216 130 275 204 275 339 c 2
 275 1121 l 1
 315 1121 l 1
 315 339 l 2
 315 219 291 145 255 112 c 0
 217 77 157 60 71 60 c 2
 -5 60 l 2
 -9 60 -16 60 -20 61 c 1
EndSplineSet
EndChar

StartChar: Lm
Encoding: 65584 -1 136
Width: 517
VWidth: 1524
GlyphClass: 2
Flags: HMW
LayerCount: 2
Back
Fore
SplineSet
227 1121 m 1
 268 1121 l 1
 268 374 l 2
 270 210 351 141 506 131 c 1
 506 60 l 1
 395 65 327 94 289 138 c 2
 254 178 l 1
 226 134 l 2
 205 104 182 87 163 82 c 0
 114 67 67 60 22 60 c 2
 -5 60 l 2
 -9 60 -16 60 -20 61 c 1
 -20 130 l 1
 22 130 l 2
 168 130 227 203 227 339 c 2
 227 1121 l 1
EndSplineSet
EndChar

StartChar: Ms
Encoding: 65585 -1 137
Width: 973
VWidth: 1524
GlyphClass: 2
Flags: HMW
LayerCount: 2
Back
Fore
SplineSet
253 -434 m 1
 211 -441 l 1
 159 -1 133 258 133 338 c 0
 133 403 179 447 297 470 c 0
 334 477 368 483 405 488 c 2
 452 495 l 1
 439 540 l 2
 434 556 430 583 430 620 c 0
 430 730 495 845 582 845 c 2
 584 845 l 2
 629 844 671 829 717 796 c 0
 780 750 822 687 845 605 c 0
 852 582 855 558 855 533 c 0
 855 508 851 483 842 458 c 1
 842 457 l 1
 815 374 l 1
 713 409 602 426 483 426 c 0
 358 426 266 415 211 390 c 0
 190 381 173 364 173 340 c 0
 173 257 200 -5 253 -434 c 1
529 496 m 2
 604 495 699 478 790 455 c 1
 802 480 815 508 815 542 c 0
 815 593 792 645 749 695 c 0
 704 747 648 774 583 774 c 0
 503 774 471 688 471 604 c 0
 471 571 485 530 505 496 c 1
 529 496 l 2
EndSplineSet
EndChar

StartChar: Mf
Encoding: 65586 -1 138
Width: 1114
VWidth: 1524
GlyphClass: 2
Flags: HMW
LayerCount: 2
Back
Fore
SplineSet
790 313 m 2
 835 238 l 2
 856 204 886 172 913 136 c 1
 911 131 l 1
 880 28 828 -35 747 -35 c 0
 708 -35 675 -3 652 57 c 1
 631 87 619 119 618 150 c 0
 618 231 642 307 687 377 c 2
 724 436 l 1
 756 375 l 2
 767 353 778 332 790 313 c 2
648 409 m 1
 644 401 l 1
 598 321 576 226 576 150 c 0
 580 45 633 -44 686 -85 c 0
 705 -98 723 -103 743 -103 c 0
 833 -103 895 -49 934 66 c 1
 950 105 l 1
 987 86 l 2
 1015 73 1052 63 1102 60 c 1
 1102 132 l 1
 991 142 923 184 858 294 c 2
 656 635 l 1
 617 607 l 1
 698 472 l 1
 589 515 l 2
 534 536 467 548 387 548 c 0
 309 548 247 524 197 481 c 0
 148 439 133 404 133 302 c 0
 133 248 159 2 212 -440 c 1
 253 -434 l 1
 200 -6 173 257 173 340 c 0
 173 360 180 380 192 399 c 0
 231 454 303 478 399 478 c 0
 506 478 584 455 648 409 c 1
204 -442 m 2
 212 -440 l 2
 212 -441 212 -441 212 -442 c 2
 212 -442 207 -442 204 -442 c 2
204 -442 m 2
 202 -442 201 -442 201 -442 c 2
 204 -442 l 2
EndSplineSet
EndChar

StartChar: Mi
Encoding: 65587 -1 139
Width: 819
VWidth: 1524
GlyphClass: 2
Flags: HMW
LayerCount: 2
Back
Fore
SplineSet
593 24 m 0
 471 24 362 82 273 184 c 1
 224 147 182 110 127 88 c 0
 78 69 43 61 21 61 c 0
 5 61 -10 61 -20 62 c 1
 -20 130 l 1
 -5 130 l 2
 106 130 197 176 265 264 c 0
 329 348 373 400 394 419 c 0
 441 462 483 480 517 480 c 0
 549 480 588 454 637 393 c 0
 684 332 707 273 707 217 c 0
 707 109 679 53 635 33 c 0
 618 27 605 24 593 24 c 0
301 228 m 1
 308 222 l 1
 382 148 468 95 582 95 c 2
 584 95 l 2
 642 95 665 146 665 215 c 0
 665 303 581 410 509 410 c 0
 436 410 354 290 301 228 c 1
EndSplineSet
EndChar

StartChar: Mm
Encoding: 65588 -1 140
Width: 973
VWidth: 1524
GlyphClass: 2
Flags: HMW
LayerCount: 2
Back
Fore
SplineSet
564 380 m 1
 550 394 528 400 503 400 c 0
 456 399 394 352 309 270 c 1
 285 249 l 1
 295 234 l 2
 364 126 436 65 515 65 c 0
 602 65 623 158 623 234 c 0
 623 289 602 338 565 380 c 1
 564 380 l 1
963 61 m 1
 837 70 787 106 727 171 c 2
 677 228 l 1
 658 152 l 2
 637 56 606 -4 517 -4 c 0
 440 -4 361 51 280 170 c 1
 252 208 l 1
 219 175 l 2
 140 96 65 60 -5 60 c 0
 -9 60 -16 60 -20 61 c 1
 -20 130 l 1
 -5 130 l 2
 119 130 196 230 273 311 c 0
 378 422 458 472 507 472 c 2
 509 472 l 2
 530 472 565 451 611 397 c 2
 735 244 l 2
 788 176 868 139 963 131 c 1
 963 61 l 1
EndSplineSet
EndChar

StartChar: Ns
Encoding: 65589 -1 141
Width: 1146
VWidth: 1524
GlyphClass: 2
Flags: HMW
LayerCount: 2
Back
Fore
SplineSet
246 -235 m 0
 295 -267 352 -284 419 -284 c 0
 712 -283 904 -230 984 -111 c 1
 985 -110 l 1
 1004 -69 1013 -22 1013 30 c 0
 1013 130 940 323 900 412 c 1
 939 432 l 1
 989 315 1024 209 1047 101 c 0
 1055 54 1059 11 1059 -32 c 0
 1059 -59 1052 -89 1035 -120 c 0
 990 -215 895 -279 748 -317 c 0
 653 -340 563 -352 482 -352 c 0
 325 -352 227 -325 167 -244 c 0
 140 -206 125 -157 125 -96 c 0
 125 7 161 133 232 276 c 1
 260 264 l 1
 200 128 171 23 171 -62 c 0
 171 -155 192 -195 246 -235 c 0
EndSplineSet
EndChar

StartChar: Nf
Encoding: 65590 -1 142
Width: 1237
VWidth: 1524
GlyphClass: 2
Flags: HMW
LayerCount: 2
Back
Fore
SplineSet
1051 138 m 1
 1051 30 l 2
 1051 -247 751 -352 441 -352 c 0
 244 -352 125 -267 125 -83 c 0
 125 12 161 132 232 276 c 1
 260 264 l 1
 200 128 171 23 171 -62 c 0
 171 -168 195 -200 262 -246 c 0
 301 -273 354 -284 417 -284 c 0
 709 -283 901 -230 981 -111 c 1
 982 -110 l 1
 1001 -68 1010 -22 1010 28 c 0
 1010 105 976 197 913 300 c 1
 953 330 l 1
 982 287 l 1
 1048 181 1085 138 1226 130 c 1
 1226 61 l 1
 1170 65 1136 76 1115 91 c 2
 1051 138 l 1
EndSplineSet
EndChar

StartChar: Vs
Encoding: 65591 -1 143
Width: 809
VWidth: 1524
GlyphClass: 2
Flags: HMW
LayerCount: 2
Back
Fore
SplineSet
472 511 m 0
 423 511 385 477 355 422 c 0
 326 367 311 316 311 271 c 0
 311 218 361 198 420 198 c 0
 436 197 458 196 492 196 c 0
 532 196 594 216 650 240 c 1
 634 351 606 435 544 485 c 0
 522 502 498 511 472 511 c 0
171 -335 m 1
 433 -221 590 -82 635 91 c 2
 656 167 l 1
 583 140 l 2
 553 129 524 125 497 125 c 0
 397 125 337 141 313 164 c 0
 286 190 271 228 271 284 c 0
 271 338 294 401 343 475 c 0
 394 551 437 581 468 581 c 0
 525 580 577 545 621 466 c 0
 665 385 688 305 688 222 c 0
 688 137 679 70 664 27 c 0
 636 -66 582 -149 504 -226 c 1
 430 -287 325 -347 190 -401 c 1
 171 -335 l 1
EndSplineSet
EndChar

StartChar: Vf
Encoding: 65592 -1 144
Width: 950
VWidth: 1524
GlyphClass: 2
Flags: HMW
LayerCount: 2
Back
Fore
SplineSet
656 135 m 1
 660 171 663 199 663 251 c 0
 663 296 649 348 624 410 c 0
 597 474 555 511 496 511 c 0
 450 511 413 476 385 422 c 0
 362 379 340 328 340 282 c 0
 340 245 356 211 394 190 c 0
 443 164 540 147 656 135 c 1
931 60 m 2
 816 60 760 64 702 71 c 1
 696 55 l 1
 669 -48 605 -141 526 -220 c 1
 451 -283 342 -345 203 -401 c 1
 184 -335 l 1
 415 -232 564 -113 623 24 c 1
 647 72 l 1
 428 103 295 117 295 277 c 0
 295 336 321 397 370 474 c 0
 419 550 463 581 496 581 c 0
 535 581 579 566 617 523 c 0
 662 473 714 339 714 212 c 2
 714 136 l 1
 758 131 800 130 848 130 c 2
 936 130 l 1
 936 60 l 1
 931 60 l 2
EndSplineSet
EndChar

StartChar: Hs
Encoding: 65593 -1 145
Width: 824
VWidth: 1524
GlyphClass: 2
Flags: HMW
LayerCount: 2
Back
Fore
SplineSet
350 604 m 1
 240 471 169 350 169 256 c 0
 169 148 285 112 403 112 c 0
 451 112 508 128 577 157 c 0
 646 188 689 229 689 288 c 0
 689 395 573 494 364 598 c 1
 350 604 l 1
730 284 m 0
 730 252 710 210 665 160 c 0
 613 103 495 41 363 41 c 0
 235 41 129 130 129 256 c 0
 129 339 176 451 271 588 c 0
 300 629 326 660 344 677 c 1
 392 658 433 639 475 611 c 0
 650 499 730 388 730 284 c 0
EndSplineSet
EndChar

StartChar: Hf
Encoding: 65594 -1 146
Width: 881
VWidth: 1524
GlyphClass: 2
Flags: HMW
LayerCount: 2
Back
Fore
SplineSet
755 79 m 0
 702 102 662 149 636 222 c 1
 537 630 l 1
 495 614 l 2
 299 542 189 448 189 325 c 0
 189 253 297 233 452 226 c 0
 495 223 533 221 559 220 c 1
 543 152 l 1
 414 161 334 171 298 181 c 0
 191 214 149 259 149 315 c 0
 149 439 213 539 350 620 c 0
 394 647 457 680 524 695 c 1
 498 809 l 1
 538 820 l 1
 657 294 l 2
 680 180 755 134 868 130 c 1
 868 60 l 1
 815 63 779 69 755 79 c 0
EndSplineSet
EndChar

StartChar: Hi
Encoding: 65595 -1 147
Width: 950
VWidth: 1524
GlyphClass: 2
Flags: HMW
LayerCount: 2
Back
Fore
SplineSet
656 16 m 0
 579 16 385 70 320 122 c 1
 311 117 l 1
 208 83 106 60 -5 60 c 0
 -9 60 -16 60 -20 61 c 1
 -20 130 l 1
 -5 130 l 2
 59 130 120 135 181 146 c 2
 250 161 l 1
 202 213 l 2
 159 261 137 318 137 387 c 0
 137 502 188 597 293 672 c 2
 346 709 l 1
 286 740 l 2
 274 746 255 758 231 770 c 1
 255 829 l 1
 332 786 396 748 457 707 c 1
 458 707 l 1
 581 633 673 549 742 450 c 0
 813 349 845 271 845 220 c 0
 845 114 759 16 656 16 c 0
382 146 m 1
 454 123 l 2
 533 99 594 87 645 87 c 0
 732 87 805 129 805 218 c 0
 805 256 788 298 759 348 c 0
 728 398 681 452 619 510 c 2
 543 581 l 1
 551 477 l 2
 552 461 553 448 553 439 c 2
 553 413 l 2
 553 326 517 253 442 194 c 2
 382 146 l 1
177 380 m 0
 177 297 227 228 313 185 c 1
 321 189 l 1
 444 230 512 312 512 413 c 0
 512 552 488 648 410 648 c 0
 353 648 297 610 264 579 c 0
 206 524 177 458 177 380 c 0
EndSplineSet
EndChar

StartChar: Hm
Encoding: 65596 -1 148
Width: 819
VWidth: 1524
GlyphClass: 2
Flags: HMW
LayerCount: 2
Back
Fore
SplineSet
195 70 m 1
 153 65 100 60 79 60 c 2
 -5 60 l 2
 -9 60 -16 60 -20 61 c 1
 -20 130 l 1
 79 130 l 2
 100 130 122 131 143 132 c 2
 189 135 l 1
 181 180 l 2
 180 185 179 189 179 194 c 2
 179 219 l 2
 179 379 201 507 243 602 c 0
 262 643 280 672 299 690 c 0
 318 708 333 714 341 714 c 0
 370 714 408 696 452 658 c 0
 523 596 609 469 609 349 c 0
 609 302 584 254 523 203 c 0
 462 152 382 113 281 85 c 2
 239 73 l 1
 255 30 l 2
 295 -83 368 -178 474 -255 c 1
 540 -297 l 1
 535 -217 l 1
 535 -216 l 2
 534 -211 534 -203 534 -193 c 2
 534 -160 l 2
 534 -93 557 -26 607 47 c 1
 655 103 716 130 792 130 c 2
 807 130 l 1
 807 60 l 1
 792 60 l 2
 673 60 573 -25 573 -193 c 0
 573 -229 578 -261 586 -286 c 1
 561 -371 l 1
 371 -280 254 -145 206 38 c 1
 195 70 l 1
449 204 m 0
 522 249 569 293 570 344 c 0
 570 461 466 644 340 644 c 0
 313 644 291 628 278 604 c 0
 237 528 220 401 220 219 c 1
 219 199 l 2
 219 190 224 157 227 142 c 1
 268 147 l 1
 349 161 408 179 449 204 c 0
EndSplineSet
EndChar

StartChar: Ys
Encoding: 65597 -1 149
Width: 1369
VWidth: 1524
GlyphClass: 2
Flags: HMW
LayerCount: 2
Back
Fore
SplineSet
260 292 m 1
 198 192 169 54 169 -67 c 0
 169 -195 278 -255 463 -255 c 0
 666 -255 837 -232 977 -188 c 0
 1062 -160 1118 -123 1118 -67 c 2
 1118 -64 l 2
 1118 -18 1101 21 1074 48 c 1
 1047 64 1000 80 928 99 c 0
 858 118 811 140 793 158 c 0
 776 176 765 210 765 266 c 0
 765 314 801 378 878 447 c 0
 955 516 1025 548 1092 548 c 0
 1153 548 1210 513 1265 436 c 1
 1223 401 l 1
 1184 449 1139 473 1085 473 c 0
 982 473 807 367 807 259 c 0
 807 231 824 209 849 196 c 0
 874 183 920 168 991 148 c 1
 1115 105 1167 42 1167 -34 c 0
 1167 -43 1166 -52 1163 -61 c 2
 1163 -62 l 1
 1123 -232 920 -325 525 -325 c 2
 487 -325 l 2
 236 -322 124 -237 124 -70 c 0
 124 35 160 162 232 306 c 1
 260 292 l 1
EndSplineSet
EndChar

StartChar: Yf
Encoding: 65598 -1 150
Width: 1277
VWidth: 1524
GlyphClass: 2
Flags: HMW
LayerCount: 2
Back
Fore
SplineSet
232 276 m 1
 259 264 l 1
 202 149 169 72 169 -96 c 0
 169 -232 312 -290 553 -290 c 0
 608 -290 691 -285 805 -275 c 0
 920 -265 995 -254 1036 -231 c 0
 1060 -218 1070 -194 1070 -166 c 0
 1070 -67 979 24 824 123 c 1
 847 177 l 1
 943 167 1095 135 1203 130 c 1
 1203 61 l 1
 1120 68 1015 97 953 111 c 2
 914 120 l 1
 944 93 l 2
 1029 13 1107 -82 1107 -171 c 0
 1107 -286 922 -360 493 -360 c 0
 315 -360 203 -308 151 -211 c 0
 134 -178 124 -144 124 -107 c 0
 124 5 160 136 232 276 c 1
EndSplineSet
EndChar

StartChar: LAs
Encoding: 65599 -1 151
Width: 1095
VWidth: 1524
GlyphClass: 2
Flags: HMW
LayerCount: 2
Back
Fore
SplineSet
566 83 m 1
 566 86 l 1
 540 410 471 641 293 801 c 1
 326 862 l 1
 481 712 574 467 604 118 c 2
 609 65 l 1
 660 85 l 2
 739 118 790 143 821 168 c 0
 878 215 911 265 911 319 c 2
 911 1141 l 1
 951 1141 l 1
 951 319 l 2
 951 230 914 161 837 110 c 1
 758 39 655 -23 528 -70 c 1
 449 -95 l 1
 434 -27 l 1
 467 -6 506 19 554 49 c 1
 567 53 l 1
 566 83 l 1
EndSplineSet
EndChar

StartChar: uniFEFB
Encoding: 65275 65275 152
Width: 973
VWidth: 1524
GlyphClass: 3
LigCaretCntFixed: 1
Flags: HMW
AnchorPoint: "Anchor-3" 734 -75 baselig 0
AnchorPoint: "Anchor-2" 698 1274 baselig 0
AnchorPoint: "Anchor-3" 229 -169 baselig 1
AnchorPoint: "Anchor-2" 159 1204 baselig 1
LayerCount: 2
Back
Fore
SplineSet
689 166 m 1
 693 166 l 1
 751 213 784 264 784 319 c 2
 784 1141 l 1
 823 1141 l 1
 823 319 l 2
 823 208 756 121 611 50 c 1
 610 50 l 1
 610 49 l 1
 551 7 481 -33 401 -70 c 1
 321 -96 l 1
 306 -27 l 1
 377 12 402 38 440 57 c 1
 439 84 l 1
 417 377 401 502 319 732 c 0
 283 835 232 930 168 1012 c 1
 204 1052 l 1
 357 854 449 544 477 119 c 2
 481 65 l 1
 532 85 l 2
 606 116 657 141 689 166 c 1
EndSplineSet
Ligature2: "'rlig' Required Ligatures in Arabic lookup 2 subtable" lam.init alef.fina8E
PairPos2: "'kern' Horizontal Kerning in Arabic lookup 0 subtable" gaf_ye.farsi.isol dx=50 dy=0 dh=50 dv=0 dx=0 dy=0 dh=0 dv=0
PairPos2: "'kern' Horizontal Kerning in Arabic lookup 0 subtable" kaf.farsi_ye.farsi.isol dx=50 dy=0 dh=50 dv=0 dx=0 dy=0 dh=0 dv=0
PairPos2: "'kern' Horizontal Kerning in Arabic lookup 0 subtable" uniFEDB dx=50 dy=0 dh=50 dv=0 dx=0 dy=0 dh=0 dv=0
PairPos2: "'kern' Horizontal Kerning in Arabic lookup 0 subtable" uniFE83 dx=62 dy=0 dh=62 dv=0 dx=0 dy=0 dh=0 dv=0
PairPos2: "'kern' Horizontal Kerning in Arabic lookup 0 subtable" uniFE81 dx=62 dy=0 dh=62 dv=0 dx=0 dy=0 dh=0 dv=0
PairPos2: "'kern' Horizontal Kerning in Arabic lookup 0 subtable" kaf.init dx=50 dy=0 dh=50 dv=0 dx=0 dy=0 dh=0 dv=0
PairPos2: "'kern' Horizontal Kerning in Arabic lookup 0 subtable" uniFB8E dx=50 dy=0 dh=50 dv=0 dx=0 dy=0 dh=0 dv=0
PairPos2: "'kern' Horizontal Kerning in Arabic lookup 0 subtable" uniFB50 dx=62 dy=0 dh=62 dv=0 dx=0 dy=0 dh=0 dv=0
PairPos2: "'kern' Horizontal Kerning in Arabic lookup 0 subtable" gaf.init dx=50 dy=0 dh=50 dv=0 dx=0 dy=0 dh=0 dv=0
PairPos2: "'kern' Horizontal Kerning in Arabic lookup 0 subtable" uniFB92 dx=50 dy=0 dh=50 dv=0 dx=0 dy=0 dh=0 dv=0
LCarets2: 1 496 
EndChar

StartChar: LAf
Encoding: 65600 -1 153
Width: 1198
VWidth: 1524
GlyphClass: 2
Flags: HMW
LayerCount: 2
Back
Fore
SplineSet
949 1121 m 1
 949 339 l 2
 949 185 1039 136 1186 130 c 1
 1186 60 l 1
 1075 63 1035 76 982 112 c 0
 966 126 955 139 945 156 c 2
 917 204 l 1
 879 162 l 1
 804 55 686 -17 522 -52 c 1
 389 -75 l 1
 379 34 l 1
 603 72 l 1
 583 251 558 398 526 482 c 0
 470 633 393 750 297 835 c 1
 326 884 l 1
 471 750 563 574 605 349 c 0
 618 277 629 208 636 138 c 2
 643 86 l 1
 691 105 l 2
 830 159 908 235 908 339 c 2
 908 1121 l 1
 949 1121 l 1
EndSplineSet
EndChar

StartChar: uniFEFC
Encoding: 65276 65276 154
Width: 1046
VWidth: 1524
GlyphClass: 3
LigCaretCntFixed: 1
Flags: HMW
AnchorPoint: "Anchor-3" 734 -75 baselig 0
AnchorPoint: "Anchor-2" 698 1274 baselig 0
AnchorPoint: "Anchor-3" 229 -169 baselig 1
AnchorPoint: "Anchor-2" 159 1204 baselig 1
LayerCount: 2
Back
Fore
SplineSet
443 72 m 1
 438 118 435 158 427 250 c 0
 403 576 316 829 167 1007 c 1
 203 1046 l 1
 362 842 452 542 476 136 c 1
 480 83 l 1
 530 102 l 2
 673 156 755 234 755 339 c 2
 755 1121 l 1
 796 1121 l 1
 796 339 l 2
 797 226 853 155 960 137 c 0
 981 133 1008 131 1034 130 c 1
 1034 60 l 1
 903 63 831 90 793 156 c 2
 765 204 l 1
 727 162 l 1
 653 58 535 -15 370 -52 c 1
 238 -75 l 1
 228 34 l 1
 443 72 l 1
EndSplineSet
Ligature2: "'rlig' Required Ligatures in Arabic lookup 2 subtable" lam.medi alef.fina8E
PairPos2: "'kern' Horizontal Kerning in Arabic lookup 0 subtable" gaf_ye.farsi.isol dx=50 dy=0 dh=50 dv=0 dx=0 dy=0 dh=0 dv=0
PairPos2: "'kern' Horizontal Kerning in Arabic lookup 0 subtable" kaf.farsi_ye.farsi.isol dx=50 dy=0 dh=50 dv=0 dx=0 dy=0 dh=0 dv=0
PairPos2: "'kern' Horizontal Kerning in Arabic lookup 0 subtable" uniFEDB dx=50 dy=0 dh=50 dv=0 dx=0 dy=0 dh=0 dv=0
PairPos2: "'kern' Horizontal Kerning in Arabic lookup 0 subtable" uniFE83 dx=62 dy=0 dh=62 dv=0 dx=0 dy=0 dh=0 dv=0
PairPos2: "'kern' Horizontal Kerning in Arabic lookup 0 subtable" uniFE81 dx=62 dy=0 dh=62 dv=0 dx=0 dy=0 dh=0 dv=0
PairPos2: "'kern' Horizontal Kerning in Arabic lookup 0 subtable" kaf.init dx=50 dy=0 dh=50 dv=0 dx=0 dy=0 dh=0 dv=0
PairPos2: "'kern' Horizontal Kerning in Arabic lookup 0 subtable" uniFB8E dx=50 dy=0 dh=50 dv=0 dx=0 dy=0 dh=0 dv=0
PairPos2: "'kern' Horizontal Kerning in Arabic lookup 0 subtable" uniFB50 dx=62 dy=0 dh=62 dv=0 dx=0 dy=0 dh=0 dv=0
PairPos2: "'kern' Horizontal Kerning in Arabic lookup 0 subtable" gaf.init dx=50 dy=0 dh=50 dv=0 dx=0 dy=0 dh=0 dv=0
PairPos2: "'kern' Horizontal Kerning in Arabic lookup 0 subtable" uniFB92 dx=50 dy=0 dh=50 dv=0 dx=0 dy=0 dh=0 dv=0
LCarets2: 1 579 
EndChar

StartChar: D1
Encoding: 65601 -1 155
Width: 464
VWidth: 1524
GlyphClass: 5
Flags: HMW
LayerCount: 2
Back
Fore
SplineSet
157 888 m 1
 157 963 l 1
 233 963 l 1
 233 888 l 1
 157 888 l 1
EndSplineSet
EndChar

StartChar: D2
Encoding: 65602 -1 156
Width: 517
VWidth: 1524
GlyphClass: 5
Flags: HMW
LayerCount: 2
Back
Fore
SplineSet
272 888 m 1
 272 963 l 1
 348 963 l 1
 348 888 l 1
 272 888 l 1
43 888 m 1
 43 963 l 1
 118 963 l 1
 118 888 l 1
 43 888 l 1
EndSplineSet
EndChar

StartChar: D3
Encoding: 65603 -1 157
Width: 517
VWidth: 1524
GlyphClass: 5
Flags: HMW
LayerCount: 2
Back
Fore
SplineSet
156 1125 m 1
 156 1201 l 1
 232 1201 l 1
 232 1125 l 1
 156 1125 l 1
278 888 m 1
 278 963 l 1
 354 963 l 1
 354 888 l 1
 278 888 l 1
35 888 m 1
 35 963 l 1
 111 963 l 1
 111 888 l 1
 35 888 l 1
EndSplineSet
EndChar

StartChar: D1b
Encoding: 65604 -1 158
Width: 464
VWidth: 1524
GlyphClass: 5
Flags: HMW
LayerCount: 2
Back
Fore
SplineSet
157 -341 m 1
 157 -265 l 1
 233 -265 l 1
 233 -341 l 1
 157 -341 l 1
EndSplineSet
EndChar

StartChar: D2b
Encoding: 65605 -1 159
Width: 517
VWidth: 1524
GlyphClass: 5
Flags: HMW
LayerCount: 2
Back
Fore
SplineSet
272 -341 m 1
 272 -265 l 1
 348 -265 l 1
 348 -341 l 1
 272 -341 l 1
43 -341 m 1
 43 -265 l 1
 118 -265 l 1
 118 -341 l 1
 43 -341 l 1
EndSplineSet
EndChar

StartChar: D3b
Encoding: 65606 -1 160
Width: 517
VWidth: 1524
GlyphClass: 5
Flags: HMW
LayerCount: 2
Back
Fore
SplineSet
156 -547 m 1
 156 -471 l 1
 232 -471 l 1
 232 -547 l 1
 156 -547 l 1
278 -310 m 1
 278 -233 l 1
 354 -233 l 1
 354 -310 l 1
 278 -310 l 1
35 -310 m 1
 35 -233 l 1
 111 -233 l 1
 111 -310 l 1
 35 -310 l 1
EndSplineSet
EndChar

StartChar: mA
Encoding: 65607 -1 161
Width: -31
VWidth: 1524
GlyphClass: 5
Flags: HMW
LayerCount: 2
Back
Fore
SplineSet
343 914 m 0
 265 870 202 850 158 850 c 2
 156 850 l 2
 111 850 83 859 69 872 c 0
 57 885 35 914 -5 914 c 0
 -17 914 -30 911 -40 906 c 1
 -49 917 l 1
 -31 933 -20 937 -11 937 c 0
 23 937 23 930 47 908 c 2
 88 871 l 1
 87 868 l 1
 159 873 l 2
 265 882 352 911 414 966 c 0
 416 968 419 971 421 973 c 1
 403 953 378 933 343 914 c 0
344 1126 m 0
 257 1126 182 1056 119 931 c 2
 93 880 l 1
 110 921 l 2
 149 1010 230 1148 333 1148 c 0
 414 1148 447 1122 452 1066 c 1
 443 1108 400 1126 344 1126 c 0
452 1066 m 1
 452 1062 453 1057 453 1052 c 0
 453 1024 443 998 421 973 c 1
 443 995 454 1022 454 1050 c 0
 454 1056 453 1061 452 1066 c 1
88 871 m 1
 89 870 l 1
 93 880 l 1
 88 871 l 1
EndSplineSet
EndChar

StartChar: mH
Encoding: 65608 -1 162
Width: -31
VWidth: 1524
GlyphClass: 5
Flags: HMW
LayerCount: 2
Back
Fore
SplineSet
259 1127 m 0
 185 1127 96 1079 95 993 c 2
 95 994 l 2
 95 1084 170 1148 270 1148 c 0
 293 1148 321 1144 350 1137 c 1
 344 1117 l 1
 314 1124 289 1127 259 1127 c 0
152 906 m 2
 115 926 99 949 96 982 c 1
 103 924 165 904 249 904 c 0
 262 904 278 905 292 908 c 1
 301 888 l 1
 217 836 128 804 35 792 c 1
 34 813 l 1
 79 818 112 823 141 831 c 2
 241 855 l 1
 152 906 l 2
EndSplineSet
EndChar

StartChar: earab.tanvin_kasreh
Encoding: 1612 1612 164
Width: -31
VWidth: 1524
GlyphClass: 4
Flags: HMW
AnchorPoint: "Anchor-4" 171 630 mark 0
AnchorPoint: "Anchor-2" 171 630 mark 0
AnchorPoint: "Anchor-0" 171 630 mark 0
LayerCount: 2
Back
Fore
SplineSet
347 1064 m 0
 347 985 327 957 305 912 c 1
 324 900 341 893 368 887 c 1
 368 870 l 1
 291 895 l 1
 240 806 140 737 -20 677 c 1
 -24 687 -27 697 -29 705 c 1
 -8 711 15 721 40 731 c 1
 42 741 44 750 44 762 c 2
 44 774 l 2
 44 786 42 797 40 808 c 1
 45 784 49 758 51 729 c 1
 152 776 231 826 285 900 c 1
 238 914 202 920 154 936 c 0
 135 943 119 957 103 977 c 1
 120 1067 160 1123 226 1152 c 0
 246 1162 262 1165 271 1165 c 2
 287 1165 l 1
 330 1134 347 1101 347 1064 c 0
290 910 m 1
 308 950 333 994 333 1020 c 0
 333 1080 307 1113 262 1136 c 1
 259 1137 l 1
 255 1137 l 2
 180 1137 132 1081 115 995 c 1
 140 970 167 950 205 939 c 0
 246 926 263 922 290 910 c 1
40 808 m 1
 39 812 39 815 38 819 c 1
 39 815 39 812 40 808 c 1
38 819 m 1
 25 867 -10 901 -66 901 c 0
 -76 901 -89 900 -97 898 c 1
 -101 905 -105 914 -110 923 c 1
 -101 924 -95 925 -86 925 c 0
 -13 925 21 883 38 819 c 1
EndSplineSet
EndChar

StartChar: earab.zameh
Encoding: 1615 1615 167
Width: -31
VWidth: 1524
GlyphClass: 4
Flags: HMW
AnchorPoint: "Anchor-4" 205 630 mark 0
AnchorPoint: "Anchor-2" 205 630 mark 0
AnchorPoint: "Anchor-0" 205 630 mark 0
LayerCount: 2
Back
Fore
SplineSet
310 1014 m 0
 310 1071 284 1106 238 1129 c 1
 234 1129 l 2
 146 1129 114 1072 99 998 c 1
 123 974 150 955 189 942 c 0
 231 927 250 920 277 908 c 1
 292 941 310 981 310 1014 c 0
264 894 m 1
 213 913 129 940 95 973 c 1
 103 1095 155 1155 263 1162 c 1
 304 1131 323 1094 323 1044 c 0
 323 996 298 951 292 904 c 1
 312 895 329 886 361 876 c 1
 356 859 l 1
 272 894 l 1
 211 803 122 733 3 683 c 1
 3 717 l 1
 125 753 203 810 264 894 c 1
EndSplineSet
EndChar

StartChar: earab.tashdid
Encoding: 1617 1617 169
Width: -31
VWidth: 1524
GlyphClass: 4
Flags: HMW
AnchorPoint: "Anchor-4" 194 781 mark 0
AnchorPoint: "Anchor-2" 194 781 mark 0
AnchorPoint: "Anchor-0" 194 781 mark 0
LayerCount: 2
Back
Fore
SplineSet
206 980 m 1
 220 954 240 926 275 926 c 0
 340 926 365 990 365 1077 c 0
 365 1097 362 1126 358 1157 c 1
 368 1160 l 1
 373 1039 l 2
 373 975 354 939 319 918 c 0
 306 911 295 907 280 907 c 0
 247 907 219 942 206 980 c 1
167 978 m 2
 166 971 165 965 163 959 c 1
 169 986 172 1018 172 1054 c 2
 172 1096 l 1
 176 1097 l 1
 177 1078 179 1062 183 1046 c 1
 167 978 l 2
66 866 m 0
 111 866 140 893 156 938 c 1
 134 871 106 847 77 846 c 2
 70 846 l 2
 25 846 -1 866 -14 920 c 0
 -21 949 -25 969 -25 976 c 2
 -25 994 l 1
 -27 1037 l 1
 -21 1039 l 1
 -19 993 l 2
 -16 922 8 866 66 866 c 0
EndSplineSet
EndChar

StartChar: earab.sokon
Encoding: 1618 1618 170
Width: -31
VWidth: 1524
GlyphClass: 4
Flags: HMW
AnchorPoint: "Anchor-4" 183 751 mark 0
AnchorPoint: "Anchor-2" 183 751 mark 0
AnchorPoint: "Anchor-0" 183 751 mark 0
LayerCount: 2
Back
Fore
SplineSet
130 1133 m 1
 123 1133 l 1
 66 1095 34 1043 34 963 c 0
 34 900 89 876 165 876 c 0
 239 876 297 895 297 953 c 0
 296 1027 229 1124 130 1133 c 1
193 1139 m 0
 268 1096 301 1042 301 971 c 0
 301 880 259 840 160 840 c 0
 85 840 22 893 22 962 c 0
 22 1054 59 1119 132 1164 c 1
 155 1159 172 1152 193 1139 c 0
EndSplineSet
EndChar

StartChar: uni0653
Encoding: 1619 1619 171
Width: -31
VWidth: 1524
GlyphClass: 4
Flags: HMW
AnchorPoint: "Anchor-4" -6 793 mark 0
AnchorPoint: "Anchor-2" -6 793 mark 0
AnchorPoint: "Anchor-0" -6 793 mark 0
LayerCount: 2
Back
Fore
SplineSet
-72 870 m 0
 -101 870 -177 876 -229 889 c 1
 -225 897 -221 906 -217 914 c 1
 -174 899 -119 892 -47 892 c 0
 34 892 128 924 228 979 c 1
 235 965 l 1
 120 900 21 870 -72 870 c 0
EndSplineSet
EndChar

StartChar: uni0654
Encoding: 1620 1620 172
Width: -31
VWidth: 1524
GlyphClass: 4
Flags: HMW
AnchorPoint: "Anchor-4" 183 734 mark 0
AnchorPoint: "Anchor-2" 183 734 mark 0
AnchorPoint: "Anchor-0" 183 734 mark 0
LayerCount: 2
Back
Fore
SplineSet
209 878 m 1
 287 898 309 904 356 916 c 1
 360 894 l 1
 346 891 332 889 319 887 c 0
 251 875 159 840 42 785 c 1
 35 802 l 1
 76 822 101 833 114 839 c 2
 173 863 l 1
 125 906 l 2
 96 931 80 954 74 977 c 1
 79 960 90 945 105 934 c 0
 124 919 158 901 203 882 c 1
 209 878 l 1
233 1126 m 0
 164 1126 107 1093 83 1046 c 1
 108 1099 169 1146 218 1146 c 2
 220 1146 l 2
 256 1145 290 1128 314 1102 c 1
 308 1095 l 1
 285 1116 261 1126 233 1126 c 0
EndSplineSet
EndChar

StartChar: uni0655
Encoding: 1621 1621 173
Width: -31
VWidth: 1524
GlyphClass: 4
Flags: HMW
AnchorPoint: "Anchor-5" 171 -52 mark 0
AnchorPoint: "Anchor-3" 171 -52 mark 0
AnchorPoint: "Anchor-1" 171 -52 mark 0
LayerCount: 2
Back
Fore
SplineSet
318 -392 m 1
 322 -414 l 1
 230 -430 138 -460 5 -522 c 1
 -2 -506 l 1
 26 -492 l 2
 44 -483 60 -475 75 -468 c 2
 134 -443 l 1
 84 -401 l 2
 46 -368 32 -338 32 -308 c 0
 32 -276 45 -245 79 -210 c 0
 113 -175 144 -160 170 -160 c 0
 232 -160 246 -174 276 -206 c 1
 269 -214 l 1
 247 -194 223 -182 183 -182 c 0
 119 -182 33 -233 33 -304 c 0
 33 -386 134 -411 175 -431 c 1
 219 -409 268 -401 318 -392 c 1
EndSplineSet
EndChar

StartChar: uni0670
Encoding: 1648 1648 175
Width: -31
VWidth: 1524
GlyphClass: 4
Flags: HMW
AnchorPoint: "Anchor-4" 171 852 mark 0
AnchorPoint: "Anchor-2" 171 852 mark 0
AnchorPoint: "Anchor-0" 171 852 mark 0
LayerCount: 2
Back
Fore
SplineSet
140 1131 m 1
 143 1124 145 1118 147 1114 c 2
 139 1130 l 1
 140 1131 l 1
EndSplineSet
EndChar

StartChar: uniFDFC
Encoding: 65020 65020 176
Width: 2232
VWidth: 1524
GlyphClass: 2
Flags: HMW
LayerCount: 2
Back
Fore
SplineSet
2082 428 m 0
 2082 520 2037 649 2003 711 c 1
 2041 748 l 1
 2082 674 2127 532 2127 404 c 0
 2127 294 2047 193 1975 127 c 1
 1884 26 1767 -57 1626 -122 c 1
 1607 -55 l 1
 1822 38 1964 148 2039 281 c 0
 2068 326 2082 374 2082 428 c 0
1259 488 m 2
 1259 356 1345 318 1477 318 c 2
 1480 318 l 2
 1587 318 1712 351 1712 463 c 0
 1712 523 1690 615 1650 731 c 1
 1692 749 l 1
 1735 620 1755 531 1755 469 c 0
 1755 325 1637 250 1467 250 c 0
 1278 250 1217 305 1217 488 c 2
 1217 1183 l 1
 1259 1183 l 1
 1259 488 l 2
189 234 m 0
 179 185 174 142 174 107 c 0
 174 -52 271 -130 440 -130 c 0
 778 -130 920 3 920 372 c 2
 920 1183 l 1
 962 1183 l 1
 962 383 l 2
 962 74 864 -104 669 -169 c 0
 604 -190 536 -200 467 -200 c 0
 235 -200 129 -98 129 110 c 0
 129 191 164 300 235 430 c 1
 261 417 l 1
 222 341 199 283 189 234 c 0
1341 -60 m 1
 1341 16 l 1
 1417 16 l 1
 1417 -60 l 1
 1341 -60 l 1
1090 -60 m 1
 1090 16 l 1
 1167 16 l 1
 1167 -60 l 1
 1090 -60 l 1
EndSplineSet
EndChar

StartChar: mG
Encoding: 65609 -1 177
Width: 755
VWidth: 1524
GlyphClass: 5
Flags: HMW
LayerCount: 2
Back
Fore
SplineSet
138 1006 m 1
 131 1024 l 1
 323 1113 502 1183 668 1237 c 1
 672 1218 l 1
 462 1150 288 1080 138 1006 c 1
EndSplineSet
EndChar

StartChar: uniFB92
Encoding: 64402 64402 178
Width: 1694
VWidth: 1524
GlyphClass: 2
Flags: HMW
AnchorPoint: "Anchor-1" 229 -161 basechar 0
AnchorPoint: "Anchor-0" 348 902 basechar 0
LayerCount: 2
Back
Fore
SplineSet
1414 309 m 0
 1414 134 1174 31 642 31 c 2
 636 31 l 2
 387 31 142 102 142 305 c 0
 142 379 159 470 198 578 c 1
 243 569 l 1
 236 547 226 518 212 477 c 0
 193 417 183 365 183 318 c 0
 183 270 198 231 227 203 c 0
 302 130 451 100 669 100 c 0
 887 100 1058 115 1179 144 c 0
 1300 173 1374 226 1374 309 c 0
 1373 385 1330 454 1253 515 c 0
 1211 548 1131 597 1018 659 c 1
 1030 800 l 1
 1168 873 1322 941 1508 1006 c 0
 1539 1017 1570 1026 1592 1032 c 1
 1604 965 l 1
 1473 931 1306 863 1098 760 c 2
 1028 725 l 1
 1095 689 l 2
 1206 626 1282 575 1315 539 c 0
 1378 472 1414 420 1414 309 c 0
1021 972 m 1
 1210 1061 1343 1115 1555 1186 c 1
 1561 1166 l 1
 1366 1102 1185 1030 1027 955 c 1
 1021 972 l 1
EndSplineSet
PairPos2: "'kern' Horizontal Kerning in Arabic lookup 0 subtable" gaf_ye.farsi.isol dx=75 dy=0 dh=75 dv=0 dx=0 dy=0 dh=0 dv=0
PairPos2: "'kern' Horizontal Kerning in Arabic lookup 0 subtable" kaf.farsi_ye.farsi.isol dx=75 dy=0 dh=75 dv=0 dx=0 dy=0 dh=0 dv=0
PairPos2: "'kern' Horizontal Kerning in Arabic lookup 0 subtable" uniFB6C dx=100 dy=0 dh=100 dv=0 dx=0 dy=0 dh=0 dv=0
PairPos2: "'kern' Horizontal Kerning in Arabic lookup 0 subtable" uniFB6A dx=100 dy=0 dh=100 dv=0 dx=0 dy=0 dh=0 dv=0
PairPos2: "'kern' Horizontal Kerning in Arabic lookup 0 subtable" lam_ye.farsi.isol dx=100 dy=0 dh=100 dv=0 dx=0 dy=0 dh=0 dv=0
PairPos2: "'kern' Horizontal Kerning in Arabic lookup 0 subtable" mim_ye.farsi.isol dx=100 dy=0 dh=100 dv=0 dx=0 dy=0 dh=0 dv=0
PairPos2: "'kern' Horizontal Kerning in Arabic lookup 0 subtable" zad_ye.farsi.isol dx=100 dy=0 dh=100 dv=0 dx=0 dy=0 dh=0 dv=0
PairPos2: "'kern' Horizontal Kerning in Arabic lookup 0 subtable" shin_ye.farsi.isol dx=100 dy=0 dh=100 dv=0 dx=0 dy=0 dh=0 dv=0
PairPos2: "'kern' Horizontal Kerning in Arabic lookup 0 subtable" sad_ye.farsi.isol dx=100 dy=0 dh=100 dv=0 dx=0 dy=0 dh=0 dv=0
PairPos2: "'kern' Horizontal Kerning in Arabic lookup 0 subtable" sin_ye.farsi.isol dx=100 dy=0 dh=100 dv=0 dx=0 dy=0 dh=0 dv=0
PairPos2: "'kern' Horizontal Kerning in Arabic lookup 0 subtable" uniFEFB_earab.tanvin_fatheh dx=100 dy=0 dh=100 dv=0 dx=0 dy=0 dh=0 dv=0
PairPos2: "'kern' Horizontal Kerning in Arabic lookup 0 subtable" uniFEF7 dx=100 dy=0 dh=100 dv=0 dx=0 dy=0 dh=0 dv=0
PairPos2: "'kern' Horizontal Kerning in Arabic lookup 0 subtable" uniFEF5 dx=100 dy=0 dh=100 dv=0 dx=0 dy=0 dh=0 dv=0
PairPos2: "'kern' Horizontal Kerning in Arabic lookup 0 subtable" uniFEED dx=100 dy=0 dh=100 dv=0 dx=0 dy=0 dh=0 dv=0
PairPos2: "'kern' Horizontal Kerning in Arabic lookup 0 subtable" he8_uni0654.init dx=100 dy=0 dh=100 dv=0 dx=0 dy=0 dh=0 dv=0
PairPos2: "'kern' Horizontal Kerning in Arabic lookup 0 subtable" he8_uni0654.isol dx=100 dy=0 dh=100 dv=0 dx=0 dy=0 dh=0 dv=0
PairPos2: "'kern' Horizontal Kerning in Arabic lookup 0 subtable" he8.init dx=100 dy=0 dh=100 dv=0 dx=0 dy=0 dh=0 dv=0
PairPos2: "'kern' Horizontal Kerning in Arabic lookup 0 subtable" uniFEE9 dx=100 dy=0 dh=100 dv=0 dx=0 dy=0 dh=0 dv=0
PairPos2: "'kern' Horizontal Kerning in Arabic lookup 0 subtable" nun.init dx=100 dy=0 dh=100 dv=0 dx=0 dy=0 dh=0 dv=0
PairPos2: "'kern' Horizontal Kerning in Arabic lookup 0 subtable" mim.init dx=100 dy=0 dh=100 dv=0 dx=0 dy=0 dh=0 dv=0
PairPos2: "'kern' Horizontal Kerning in Arabic lookup 0 subtable" uniFEE1 dx=100 dy=0 dh=100 dv=0 dx=0 dy=0 dh=0 dv=0
PairPos2: "'kern' Horizontal Kerning in Arabic lookup 0 subtable" lam.init dx=100 dy=0 dh=100 dv=0 dx=0 dy=0 dh=0 dv=0
PairPos2: "'kern' Horizontal Kerning in Arabic lookup 0 subtable" uniFEDD dx=100 dy=0 dh=100 dv=0 dx=0 dy=0 dh=0 dv=0
PairPos2: "'kern' Horizontal Kerning in Arabic lookup 0 subtable" uniFEDB dx=75 dy=0 dh=75 dv=0 dx=0 dy=0 dh=0 dv=0
PairPos2: "'kern' Horizontal Kerning in Arabic lookup 0 subtable" uniFED9 dx=100 dy=0 dh=100 dv=0 dx=0 dy=0 dh=0 dv=0
PairPos2: "'kern' Horizontal Kerning in Arabic lookup 0 subtable" qaf.init dx=100 dy=0 dh=100 dv=0 dx=0 dy=0 dh=0 dv=0
PairPos2: "'kern' Horizontal Kerning in Arabic lookup 0 subtable" fe.init dx=100 dy=0 dh=100 dv=0 dx=0 dy=0 dh=0 dv=0
PairPos2: "'kern' Horizontal Kerning in Arabic lookup 0 subtable" uniFED1 dx=100 dy=0 dh=100 dv=0 dx=0 dy=0 dh=0 dv=0
PairPos2: "'kern' Horizontal Kerning in Arabic lookup 0 subtable" qein.init dx=100 dy=0 dh=100 dv=0 dx=0 dy=0 dh=0 dv=0
PairPos2: "'kern' Horizontal Kerning in Arabic lookup 0 subtable" uniFECD dx=100 dy=0 dh=100 dv=0 dx=0 dy=0 dh=0 dv=0
PairPos2: "'kern' Horizontal Kerning in Arabic lookup 0 subtable" ein.init dx=100 dy=0 dh=100 dv=0 dx=0 dy=0 dh=0 dv=0
PairPos2: "'kern' Horizontal Kerning in Arabic lookup 0 subtable" uniFEC9 dx=100 dy=0 dh=100 dv=0 dx=0 dy=0 dh=0 dv=0
PairPos2: "'kern' Horizontal Kerning in Arabic lookup 0 subtable" za.init dx=100 dy=0 dh=100 dv=0 dx=0 dy=0 dh=0 dv=0
PairPos2: "'kern' Horizontal Kerning in Arabic lookup 0 subtable" uniFEC5 dx=100 dy=0 dh=100 dv=0 dx=0 dy=0 dh=0 dv=0
PairPos2: "'kern' Horizontal Kerning in Arabic lookup 0 subtable" ta.init dx=100 dy=0 dh=100 dv=0 dx=0 dy=0 dh=0 dv=0
PairPos2: "'kern' Horizontal Kerning in Arabic lookup 0 subtable" uniFEC1 dx=100 dy=0 dh=100 dv=0 dx=0 dy=0 dh=0 dv=0
PairPos2: "'kern' Horizontal Kerning in Arabic lookup 0 subtable" zad.init dx=100 dy=0 dh=100 dv=0 dx=0 dy=0 dh=0 dv=0
PairPos2: "'kern' Horizontal Kerning in Arabic lookup 0 subtable" uniFEBD dx=100 dy=0 dh=100 dv=0 dx=0 dy=0 dh=0 dv=0
PairPos2: "'kern' Horizontal Kerning in Arabic lookup 0 subtable" sad.init dx=100 dy=0 dh=100 dv=0 dx=0 dy=0 dh=0 dv=0
PairPos2: "'kern' Horizontal Kerning in Arabic lookup 0 subtable" uniFEB9 dx=100 dy=0 dh=100 dv=0 dx=0 dy=0 dh=0 dv=0
PairPos2: "'kern' Horizontal Kerning in Arabic lookup 0 subtable" shin.init dx=100 dy=0 dh=100 dv=0 dx=0 dy=0 dh=0 dv=0
PairPos2: "'kern' Horizontal Kerning in Arabic lookup 0 subtable" uniFEB5 dx=100 dy=0 dh=100 dv=0 dx=0 dy=0 dh=0 dv=0
PairPos2: "'kern' Horizontal Kerning in Arabic lookup 0 subtable" sin.init dx=100 dy=0 dh=100 dv=0 dx=0 dy=0 dh=0 dv=0
PairPos2: "'kern' Horizontal Kerning in Arabic lookup 0 subtable" uniFEB1 dx=100 dy=0 dh=100 dv=0 dx=0 dy=0 dh=0 dv=0
PairPos2: "'kern' Horizontal Kerning in Arabic lookup 0 subtable" uniFEAF dx=100 dy=0 dh=100 dv=0 dx=0 dy=0 dh=0 dv=0
PairPos2: "'kern' Horizontal Kerning in Arabic lookup 0 subtable" uniFEAD dx=100 dy=0 dh=100 dv=0 dx=0 dy=0 dh=0 dv=0
PairPos2: "'kern' Horizontal Kerning in Arabic lookup 0 subtable" uniFEAB dx=100 dy=0 dh=100 dv=0 dx=0 dy=0 dh=0 dv=0
PairPos2: "'kern' Horizontal Kerning in Arabic lookup 0 subtable" uniFEA9 dx=100 dy=0 dh=100 dv=0 dx=0 dy=0 dh=0 dv=0
PairPos2: "'kern' Horizontal Kerning in Arabic lookup 0 subtable" khe.init dx=100 dy=0 dh=100 dv=0 dx=0 dy=0 dh=0 dv=0
PairPos2: "'kern' Horizontal Kerning in Arabic lookup 0 subtable" uniFEA5 dx=100 dy=0 dh=100 dv=0 dx=0 dy=0 dh=0 dv=0
PairPos2: "'kern' Horizontal Kerning in Arabic lookup 0 subtable" him.init dx=100 dy=0 dh=100 dv=0 dx=0 dy=0 dh=0 dv=0
PairPos2: "'kern' Horizontal Kerning in Arabic lookup 0 subtable" uniFEA1 dx=100 dy=0 dh=100 dv=0 dx=0 dy=0 dh=0 dv=0
PairPos2: "'kern' Horizontal Kerning in Arabic lookup 0 subtable" jim.init dx=100 dy=0 dh=100 dv=0 dx=0 dy=0 dh=0 dv=0
PairPos2: "'kern' Horizontal Kerning in Arabic lookup 0 subtable" uniFE9D dx=100 dy=0 dh=100 dv=0 dx=0 dy=0 dh=0 dv=0
PairPos2: "'kern' Horizontal Kerning in Arabic lookup 0 subtable" the.init dx=100 dy=0 dh=100 dv=0 dx=0 dy=0 dh=0 dv=0
PairPos2: "'kern' Horizontal Kerning in Arabic lookup 0 subtable" te.init dx=100 dy=0 dh=100 dv=0 dx=0 dy=0 dh=0 dv=0
PairPos2: "'kern' Horizontal Kerning in Arabic lookup 0 subtable" uniFE95 dx=100 dy=0 dh=100 dv=0 dx=0 dy=0 dh=0 dv=0
PairPos2: "'kern' Horizontal Kerning in Arabic lookup 0 subtable" uniFE93 dx=100 dy=0 dh=100 dv=0 dx=0 dy=0 dh=0 dv=0
PairPos2: "'kern' Horizontal Kerning in Arabic lookup 0 subtable" ye.hamze.init dx=100 dy=0 dh=100 dv=0 dx=0 dy=0 dh=0 dv=0
PairPos2: "'kern' Horizontal Kerning in Arabic lookup 0 subtable" uniFE83 dx=100 dy=0 dh=100 dv=0 dx=0 dy=0 dh=0 dv=0
PairPos2: "'kern' Horizontal Kerning in Arabic lookup 0 subtable" uniFE81 dx=100 dy=0 dh=100 dv=0 dx=0 dy=0 dh=0 dv=0
PairPos2: "'kern' Horizontal Kerning in Arabic lookup 0 subtable" uniFE80 dx=100 dy=0 dh=100 dv=0 dx=0 dy=0 dh=0 dv=0
PairPos2: "'kern' Horizontal Kerning in Arabic lookup 0 subtable" uniFD3D dx=100 dy=0 dh=100 dv=0 dx=0 dy=0 dh=0 dv=0
PairPos2: "'kern' Horizontal Kerning in Arabic lookup 0 subtable" uniFBE8 dx=100 dy=0 dh=100 dv=0 dx=0 dy=0 dh=0 dv=0
PairPos2: "'kern' Horizontal Kerning in Arabic lookup 0 subtable" heye dx=100 dy=0 dh=100 dv=0 dx=0 dy=0 dh=0 dv=0
PairPos2: "'kern' Horizontal Kerning in Arabic lookup 0 subtable" kaf.init dx=75 dy=0 dh=75 dv=0 dx=0 dy=0 dh=0 dv=0
PairPos2: "'kern' Horizontal Kerning in Arabic lookup 0 subtable" uniFB8E dx=75 dy=0 dh=75 dv=0 dx=0 dy=0 dh=0 dv=0
PairPos2: "'kern' Horizontal Kerning in Arabic lookup 0 subtable" uniFB8A dx=100 dy=0 dh=100 dv=0 dx=0 dy=0 dh=0 dv=0
PairPos2: "'kern' Horizontal Kerning in Arabic lookup 0 subtable" che.init dx=100 dy=0 dh=100 dv=0 dx=0 dy=0 dh=0 dv=0
PairPos2: "'kern' Horizontal Kerning in Arabic lookup 0 subtable" uniFB7A dx=100 dy=0 dh=100 dv=0 dx=0 dy=0 dh=0 dv=0
PairPos2: "'kern' Horizontal Kerning in Arabic lookup 0 subtable" uniFB56 dx=100 dy=0 dh=100 dv=0 dx=0 dy=0 dh=0 dv=0
PairPos2: "'kern' Horizontal Kerning in Arabic lookup 0 subtable" uniFB50 dx=100 dy=0 dh=100 dv=0 dx=0 dy=0 dh=0 dv=0
PairPos2: "'kern' Horizontal Kerning in Arabic lookup 0 subtable" gaf.init dx=75 dy=0 dh=75 dv=0 dx=0 dy=0 dh=0 dv=0
PairPos2: "'kern' Horizontal Kerning in Arabic lookup 0 subtable" uniFB92 dx=75 dy=0 dh=75 dv=0 dx=0 dy=0 dh=0 dv=0
PairPos2: "'kern' Horizontal Kerning in Arabic lookup 0 subtable" uniFEFB dx=100 dy=0 dh=100 dv=0 dx=0 dy=0 dh=0 dv=0
PairPos2: "'kern' Horizontal Kerning in Arabic lookup 0 subtable" uniFE8D dx=100 dy=0 dh=100 dv=0 dx=0 dy=0 dh=0 dv=0
EndChar

StartChar: gaf.fina
Encoding: 64403 64403 179
Width: 1794
VWidth: 1524
GlyphClass: 2
Flags: HMW
AnchorPoint: "Anchor-1" 229 -161 basechar 0
AnchorPoint: "Anchor-0" 348 902 basechar 0
LayerCount: 2
Back
Fore
SplineSet
1029 956 m 1
 1022 974 l 1
 1218 1065 1394 1134 1556 1188 c 1
 1563 1167 l 1
 1350 1097 1174 1027 1029 956 c 1
879 34 m 0
 794 32 723 31 666 31 c 2
 623 31 l 2
 390 31 142 104 142 292 c 0
 142 374 162 471 199 578 c 1
 242 569 l 1
 234 543 225 513 211 473 c 0
 193 418 183 359 183 298 c 0
 183 227 234 179 320 147 c 0
 406 115 512 100 644 100 c 0
 881 100 1060 115 1181 144 c 0
 1302 173 1375 228 1375 310 c 0
 1375 386 1332 454 1255 515 c 0
 1214 547 1134 596 1019 659 c 1
 1031 800 l 1
 1168 872 1322 941 1510 1006 c 0
 1541 1017 1572 1026 1594 1032 c 1
 1606 965 l 1
 1478 930 1312 865 1098 760 c 1
 1032 725 l 1
 1096 689 l 2
 1218 618 1306 562 1358 522 c 0
 1471 433 1547 354 1584 283 c 0
 1628 194 1695 145 1783 133 c 1
 1783 63 l 1
 1704 73 1643 111 1595 180 c 0
 1560 232 1533 290 1485 343 c 2
 1417 415 l 1
 1416 315 l 2
 1414 204 1335 128 1162 81 c 0
 1056 52 962 36 879 34 c 0
EndSplineSet
PairPos2: "'kern' Horizontal Kerning in Arabic lookup 0 subtable" gaf_ye.farsi.isol dx=75 dy=0 dh=75 dv=0 dx=0 dy=0 dh=0 dv=0
PairPos2: "'kern' Horizontal Kerning in Arabic lookup 0 subtable" kaf.farsi_ye.farsi.isol dx=75 dy=0 dh=75 dv=0 dx=0 dy=0 dh=0 dv=0
PairPos2: "'kern' Horizontal Kerning in Arabic lookup 0 subtable" uniFB6C dx=100 dy=0 dh=100 dv=0 dx=0 dy=0 dh=0 dv=0
PairPos2: "'kern' Horizontal Kerning in Arabic lookup 0 subtable" uniFB6A dx=100 dy=0 dh=100 dv=0 dx=0 dy=0 dh=0 dv=0
PairPos2: "'kern' Horizontal Kerning in Arabic lookup 0 subtable" lam_ye.farsi.isol dx=100 dy=0 dh=100 dv=0 dx=0 dy=0 dh=0 dv=0
PairPos2: "'kern' Horizontal Kerning in Arabic lookup 0 subtable" mim_ye.farsi.isol dx=100 dy=0 dh=100 dv=0 dx=0 dy=0 dh=0 dv=0
PairPos2: "'kern' Horizontal Kerning in Arabic lookup 0 subtable" zad_ye.farsi.isol dx=100 dy=0 dh=100 dv=0 dx=0 dy=0 dh=0 dv=0
PairPos2: "'kern' Horizontal Kerning in Arabic lookup 0 subtable" shin_ye.farsi.isol dx=100 dy=0 dh=100 dv=0 dx=0 dy=0 dh=0 dv=0
PairPos2: "'kern' Horizontal Kerning in Arabic lookup 0 subtable" sad_ye.farsi.isol dx=100 dy=0 dh=100 dv=0 dx=0 dy=0 dh=0 dv=0
PairPos2: "'kern' Horizontal Kerning in Arabic lookup 0 subtable" sin_ye.farsi.isol dx=100 dy=0 dh=100 dv=0 dx=0 dy=0 dh=0 dv=0
PairPos2: "'kern' Horizontal Kerning in Arabic lookup 0 subtable" uniFEFB_earab.tanvin_fatheh dx=100 dy=0 dh=100 dv=0 dx=0 dy=0 dh=0 dv=0
PairPos2: "'kern' Horizontal Kerning in Arabic lookup 0 subtable" uniFEF7 dx=100 dy=0 dh=100 dv=0 dx=0 dy=0 dh=0 dv=0
PairPos2: "'kern' Horizontal Kerning in Arabic lookup 0 subtable" uniFEF5 dx=100 dy=0 dh=100 dv=0 dx=0 dy=0 dh=0 dv=0
PairPos2: "'kern' Horizontal Kerning in Arabic lookup 0 subtable" uniFEED dx=100 dy=0 dh=100 dv=0 dx=0 dy=0 dh=0 dv=0
PairPos2: "'kern' Horizontal Kerning in Arabic lookup 0 subtable" he8_uni0654.init dx=100 dy=0 dh=100 dv=0 dx=0 dy=0 dh=0 dv=0
PairPos2: "'kern' Horizontal Kerning in Arabic lookup 0 subtable" he8_uni0654.isol dx=100 dy=0 dh=100 dv=0 dx=0 dy=0 dh=0 dv=0
PairPos2: "'kern' Horizontal Kerning in Arabic lookup 0 subtable" he8.init dx=100 dy=0 dh=100 dv=0 dx=0 dy=0 dh=0 dv=0
PairPos2: "'kern' Horizontal Kerning in Arabic lookup 0 subtable" uniFEE9 dx=100 dy=0 dh=100 dv=0 dx=0 dy=0 dh=0 dv=0
PairPos2: "'kern' Horizontal Kerning in Arabic lookup 0 subtable" nun.init dx=100 dy=0 dh=100 dv=0 dx=0 dy=0 dh=0 dv=0
PairPos2: "'kern' Horizontal Kerning in Arabic lookup 0 subtable" mim.init dx=100 dy=0 dh=100 dv=0 dx=0 dy=0 dh=0 dv=0
PairPos2: "'kern' Horizontal Kerning in Arabic lookup 0 subtable" uniFEE1 dx=100 dy=0 dh=100 dv=0 dx=0 dy=0 dh=0 dv=0
PairPos2: "'kern' Horizontal Kerning in Arabic lookup 0 subtable" lam.init dx=100 dy=0 dh=100 dv=0 dx=0 dy=0 dh=0 dv=0
PairPos2: "'kern' Horizontal Kerning in Arabic lookup 0 subtable" uniFEDD dx=100 dy=0 dh=100 dv=0 dx=0 dy=0 dh=0 dv=0
PairPos2: "'kern' Horizontal Kerning in Arabic lookup 0 subtable" uniFEDB dx=75 dy=0 dh=75 dv=0 dx=0 dy=0 dh=0 dv=0
PairPos2: "'kern' Horizontal Kerning in Arabic lookup 0 subtable" uniFED9 dx=100 dy=0 dh=100 dv=0 dx=0 dy=0 dh=0 dv=0
PairPos2: "'kern' Horizontal Kerning in Arabic lookup 0 subtable" qaf.init dx=100 dy=0 dh=100 dv=0 dx=0 dy=0 dh=0 dv=0
PairPos2: "'kern' Horizontal Kerning in Arabic lookup 0 subtable" fe.init dx=100 dy=0 dh=100 dv=0 dx=0 dy=0 dh=0 dv=0
PairPos2: "'kern' Horizontal Kerning in Arabic lookup 0 subtable" uniFED1 dx=100 dy=0 dh=100 dv=0 dx=0 dy=0 dh=0 dv=0
PairPos2: "'kern' Horizontal Kerning in Arabic lookup 0 subtable" qein.init dx=100 dy=0 dh=100 dv=0 dx=0 dy=0 dh=0 dv=0
PairPos2: "'kern' Horizontal Kerning in Arabic lookup 0 subtable" uniFECD dx=100 dy=0 dh=100 dv=0 dx=0 dy=0 dh=0 dv=0
PairPos2: "'kern' Horizontal Kerning in Arabic lookup 0 subtable" ein.init dx=100 dy=0 dh=100 dv=0 dx=0 dy=0 dh=0 dv=0
PairPos2: "'kern' Horizontal Kerning in Arabic lookup 0 subtable" uniFEC9 dx=100 dy=0 dh=100 dv=0 dx=0 dy=0 dh=0 dv=0
PairPos2: "'kern' Horizontal Kerning in Arabic lookup 0 subtable" za.init dx=100 dy=0 dh=100 dv=0 dx=0 dy=0 dh=0 dv=0
PairPos2: "'kern' Horizontal Kerning in Arabic lookup 0 subtable" uniFEC5 dx=100 dy=0 dh=100 dv=0 dx=0 dy=0 dh=0 dv=0
PairPos2: "'kern' Horizontal Kerning in Arabic lookup 0 subtable" ta.init dx=100 dy=0 dh=100 dv=0 dx=0 dy=0 dh=0 dv=0
PairPos2: "'kern' Horizontal Kerning in Arabic lookup 0 subtable" uniFEC1 dx=100 dy=0 dh=100 dv=0 dx=0 dy=0 dh=0 dv=0
PairPos2: "'kern' Horizontal Kerning in Arabic lookup 0 subtable" zad.init dx=100 dy=0 dh=100 dv=0 dx=0 dy=0 dh=0 dv=0
PairPos2: "'kern' Horizontal Kerning in Arabic lookup 0 subtable" uniFEBD dx=100 dy=0 dh=100 dv=0 dx=0 dy=0 dh=0 dv=0
PairPos2: "'kern' Horizontal Kerning in Arabic lookup 0 subtable" sad.init dx=100 dy=0 dh=100 dv=0 dx=0 dy=0 dh=0 dv=0
PairPos2: "'kern' Horizontal Kerning in Arabic lookup 0 subtable" uniFEB9 dx=100 dy=0 dh=100 dv=0 dx=0 dy=0 dh=0 dv=0
PairPos2: "'kern' Horizontal Kerning in Arabic lookup 0 subtable" shin.init dx=100 dy=0 dh=100 dv=0 dx=0 dy=0 dh=0 dv=0
PairPos2: "'kern' Horizontal Kerning in Arabic lookup 0 subtable" uniFEB5 dx=100 dy=0 dh=100 dv=0 dx=0 dy=0 dh=0 dv=0
PairPos2: "'kern' Horizontal Kerning in Arabic lookup 0 subtable" sin.init dx=100 dy=0 dh=100 dv=0 dx=0 dy=0 dh=0 dv=0
PairPos2: "'kern' Horizontal Kerning in Arabic lookup 0 subtable" uniFEB1 dx=100 dy=0 dh=100 dv=0 dx=0 dy=0 dh=0 dv=0
PairPos2: "'kern' Horizontal Kerning in Arabic lookup 0 subtable" uniFEAF dx=100 dy=0 dh=100 dv=0 dx=0 dy=0 dh=0 dv=0
PairPos2: "'kern' Horizontal Kerning in Arabic lookup 0 subtable" uniFEAD dx=100 dy=0 dh=100 dv=0 dx=0 dy=0 dh=0 dv=0
PairPos2: "'kern' Horizontal Kerning in Arabic lookup 0 subtable" uniFEAB dx=100 dy=0 dh=100 dv=0 dx=0 dy=0 dh=0 dv=0
PairPos2: "'kern' Horizontal Kerning in Arabic lookup 0 subtable" uniFEA9 dx=100 dy=0 dh=100 dv=0 dx=0 dy=0 dh=0 dv=0
PairPos2: "'kern' Horizontal Kerning in Arabic lookup 0 subtable" khe.init dx=100 dy=0 dh=100 dv=0 dx=0 dy=0 dh=0 dv=0
PairPos2: "'kern' Horizontal Kerning in Arabic lookup 0 subtable" uniFEA5 dx=100 dy=0 dh=100 dv=0 dx=0 dy=0 dh=0 dv=0
PairPos2: "'kern' Horizontal Kerning in Arabic lookup 0 subtable" him.init dx=100 dy=0 dh=100 dv=0 dx=0 dy=0 dh=0 dv=0
PairPos2: "'kern' Horizontal Kerning in Arabic lookup 0 subtable" uniFEA1 dx=100 dy=0 dh=100 dv=0 dx=0 dy=0 dh=0 dv=0
PairPos2: "'kern' Horizontal Kerning in Arabic lookup 0 subtable" jim.init dx=100 dy=0 dh=100 dv=0 dx=0 dy=0 dh=0 dv=0
PairPos2: "'kern' Horizontal Kerning in Arabic lookup 0 subtable" uniFE9D dx=100 dy=0 dh=100 dv=0 dx=0 dy=0 dh=0 dv=0
PairPos2: "'kern' Horizontal Kerning in Arabic lookup 0 subtable" the.init dx=100 dy=0 dh=100 dv=0 dx=0 dy=0 dh=0 dv=0
PairPos2: "'kern' Horizontal Kerning in Arabic lookup 0 subtable" te.init dx=100 dy=0 dh=100 dv=0 dx=0 dy=0 dh=0 dv=0
PairPos2: "'kern' Horizontal Kerning in Arabic lookup 0 subtable" uniFE95 dx=100 dy=0 dh=100 dv=0 dx=0 dy=0 dh=0 dv=0
PairPos2: "'kern' Horizontal Kerning in Arabic lookup 0 subtable" uniFE93 dx=100 dy=0 dh=100 dv=0 dx=0 dy=0 dh=0 dv=0
PairPos2: "'kern' Horizontal Kerning in Arabic lookup 0 subtable" ye.hamze.init dx=100 dy=0 dh=100 dv=0 dx=0 dy=0 dh=0 dv=0
PairPos2: "'kern' Horizontal Kerning in Arabic lookup 0 subtable" uniFE83 dx=100 dy=0 dh=100 dv=0 dx=0 dy=0 dh=0 dv=0
PairPos2: "'kern' Horizontal Kerning in Arabic lookup 0 subtable" uniFE81 dx=100 dy=0 dh=100 dv=0 dx=0 dy=0 dh=0 dv=0
PairPos2: "'kern' Horizontal Kerning in Arabic lookup 0 subtable" uniFE80 dx=100 dy=0 dh=100 dv=0 dx=0 dy=0 dh=0 dv=0
PairPos2: "'kern' Horizontal Kerning in Arabic lookup 0 subtable" uniFD3D dx=100 dy=0 dh=100 dv=0 dx=0 dy=0 dh=0 dv=0
PairPos2: "'kern' Horizontal Kerning in Arabic lookup 0 subtable" uniFBE8 dx=100 dy=0 dh=100 dv=0 dx=0 dy=0 dh=0 dv=0
PairPos2: "'kern' Horizontal Kerning in Arabic lookup 0 subtable" heye dx=100 dy=0 dh=100 dv=0 dx=0 dy=0 dh=0 dv=0
PairPos2: "'kern' Horizontal Kerning in Arabic lookup 0 subtable" kaf.init dx=75 dy=0 dh=75 dv=0 dx=0 dy=0 dh=0 dv=0
PairPos2: "'kern' Horizontal Kerning in Arabic lookup 0 subtable" uniFB8E dx=75 dy=0 dh=75 dv=0 dx=0 dy=0 dh=0 dv=0
PairPos2: "'kern' Horizontal Kerning in Arabic lookup 0 subtable" uniFB8A dx=100 dy=0 dh=100 dv=0 dx=0 dy=0 dh=0 dv=0
PairPos2: "'kern' Horizontal Kerning in Arabic lookup 0 subtable" che.init dx=100 dy=0 dh=100 dv=0 dx=0 dy=0 dh=0 dv=0
PairPos2: "'kern' Horizontal Kerning in Arabic lookup 0 subtable" uniFB7A dx=100 dy=0 dh=100 dv=0 dx=0 dy=0 dh=0 dv=0
PairPos2: "'kern' Horizontal Kerning in Arabic lookup 0 subtable" uniFB56 dx=100 dy=0 dh=100 dv=0 dx=0 dy=0 dh=0 dv=0
PairPos2: "'kern' Horizontal Kerning in Arabic lookup 0 subtable" uniFB50 dx=100 dy=0 dh=100 dv=0 dx=0 dy=0 dh=0 dv=0
PairPos2: "'kern' Horizontal Kerning in Arabic lookup 0 subtable" gaf.init dx=75 dy=0 dh=75 dv=0 dx=0 dy=0 dh=0 dv=0
PairPos2: "'kern' Horizontal Kerning in Arabic lookup 0 subtable" uniFB92 dx=75 dy=0 dh=75 dv=0 dx=0 dy=0 dh=0 dv=0
PairPos2: "'kern' Horizontal Kerning in Arabic lookup 0 subtable" uniFEFB dx=100 dy=0 dh=100 dv=0 dx=0 dy=0 dh=0 dv=0
PairPos2: "'kern' Horizontal Kerning in Arabic lookup 0 subtable" uniFE8D dx=100 dy=0 dh=100 dv=0 dx=0 dy=0 dh=0 dv=0
EndChar

StartChar: gaf.init
Encoding: 64404 64404 180
Width: 765
VWidth: 1524
GlyphClass: 2
Flags: HMW
AnchorPoint: "Anchor-1" 229 -161 basechar 0
AnchorPoint: "Anchor-0" 205 1134 basechar 0
LayerCount: 2
Back
Fore
SplineSet
475 337 m 0
 475 191 397 130 273 93 c 0
 203 71 129 60 50 60 c 2
 -5 60 l 2
 -9 60 -16 60 -20 61 c 1
 -20 130 l 1
 50 130 l 2
 209 130 324 156 392 217 c 0
 421 242 435 278 435 316 c 0
 435 417 350 510 197 594 c 0
 162 614 123 636 81 659 c 1
 93 800 l 1
 255 887 454 971 654 1032 c 1
 667 965 l 1
 589 943 500 910 397 866 c 0
 286 818 208 783 160 760 c 2
 90 725 l 1
 157 689 l 1
 265 626 339 576 375 539 c 0
 444 467 475 400 475 337 c 0
88 956 m 1
 81 974 l 1
 273 1063 452 1133 618 1187 c 1
 622 1168 l 1
 412 1100 238 1030 88 956 c 1
EndSplineSet
EndChar

StartChar: gaf.medi
Encoding: 64405 64405 181
Width: 867
VWidth: 1524
GlyphClass: 2
Flags: HMW
AnchorPoint: "Anchor-1" 229 -161 basechar 0
AnchorPoint: "Anchor-0" 205 1134 basechar 0
LayerCount: 2
Back
Fore
SplineSet
485 390 m 1
 485 307 l 2
 485 117 262 40 50 40 c 2
 -5 40 l 2
 -12 40 -23 41 -30 43 c 1
 -30 130 l 1
 50 130 l 2
 208 130 320 157 385 215 c 0
 412 238 425 270 425 306 c 0
 425 401 344 491 192 575 c 0
 155 596 114 619 70 643 c 1
 83 796 l 1
 250 886 455 971 662 1035 c 1
 679 948 l 1
 600 926 508 893 401 847 c 0
 290 799 212 764 164 741 c 2
 114 715 l 1
 162 688 l 2
 285 617 373 560 425 520 c 0
 539 431 615 350 652 278 c 0
 697 189 768 141 865 132 c 1
 865 41 l 1
 749 50 664 112 605 231 c 0
 592 256 570 288 538 326 c 2
 485 390 l 1
119 1019 m 1
 317 1111 503 1185 675 1240 c 1
 684 1201 l 1
 468 1131 285 1058 132 982 c 1
 119 1019 l 1
EndSplineSet
EndChar

StartChar: uni2026.fa
Encoding: 65663 -1 364
Width: 1568
VWidth: 1524
GlyphClass: 2
Flags: HMW
LayerCount: 2
Back
Fore
SplineSet
284 39 m 0
 276 37 267 36 251 36 c 0
 229 36 199 69 199 102 c 0
 199 138 227 166 263 166 c 0
 300 166 327 139 327 102 c 0
 327 72 300 43 284 39 c 0
859 102 m 0
 859 65 831 36 796 36 c 0
 760 36 732 65 732 102 c 0
 732 140 757 166 795 166 c 0
 832 166 859 139 859 102 c 0
1393 103 m 0
 1393 68 1362 36 1329 36 c 0
 1294 36 1265 65 1265 102 c 0
 1265 139 1292 166 1329 166 c 0
 1365 166 1393 138 1393 103 c 0
EndSplineSet
EndChar

StartChar: period.fa
Encoding: 65664 -1 365
Width: 476
VWidth: 1524
GlyphClass: 2
Flags: HMW
LayerCount: 2
Back
Fore
SplineSet
313 102 m 0
 313 65 285 36 249 36 c 0
 213 36 185 65 185 102 c 0
 185 138 213 166 246 166 c 2
 249 166 l 2
 286 166 313 139 313 102 c 0
EndSplineSet
EndChar

StartChar: virgul.fa
Encoding: 65665 -1 366
Width: 506
VWidth: 1524
GlyphClass: 2
Flags: HMW
LayerCount: 2
Back
Fore
SplineSet
273 170 m 0
 301 170 331 137 331 103 c 0
 331 65 303 36 263 36 c 0
 211 36 169 90 169 161 c 0
 169 171 170 184 171 193 c 1
 172 187 174 182 175 177 c 1
 176 177 l 1
 197 122 l 1
 240 161 l 2
 247 167 256 170 273 170 c 0
EndSplineSet
EndChar

StartChar: noqte_virgul.fa
Encoding: 65666 -1 367
Width: 506
VWidth: 1524
GlyphClass: 2
Flags: HMW
LayerCount: 2
Back
Fore
SplineSet
263 434 m 0
 225 434 195 460 180 502 c 1
 240 558 l 2
 245 563 254 566 271 566 c 0
 300 566 332 533 332 500 c 0
 332 463 302 434 263 434 c 0
173 587 m 2
 173 531 l 2
 172 540 171 549 171 558 c 0
 171 568 172 578 173 587 c 2
329 103 m 0
 329 65 301 41 265 36 c 1
 228 39 201 67 201 103 c 0
 201 140 226 166 265 166 c 0
 305 166 329 142 329 103 c 0
EndSplineSet
EndChar

StartChar: colon.fa
Encoding: 65667 -1 368
Width: 506
VWidth: 1524
GlyphClass: 2
Flags: HMW
LayerCount: 2
Back
Fore
SplineSet
268 470 m 2
 267 470 l 2
 233 470 205 498 205 534 c 0
 205 564 234 597 247 597 c 2
 268 597 l 2
 304 597 332 568 332 534 c 0
 332 499 303 470 268 470 c 2
268 37 m 2
 265 37 l 2
 231 37 205 65 205 102 c 0
 205 140 231 166 267 166 c 0
 304 166 331 139 331 102 c 0
 331 65 304 39 268 37 c 2
EndSplineSet
EndChar

StartChar: soal.fa
Encoding: 65670 -1 371
Width: 817
VWidth: 1524
GlyphClass: 2
Flags: HMW
LayerCount: 2
Back
Fore
SplineSet
490 37 m 1
 459 40 435 67 435 102 c 0
 435 140 461 166 497 166 c 0
 532 166 563 137 563 108 c 0
 563 55 546 44 490 37 c 1
631 1194 m 1
 613 1130 l 1
 561 1144 515 1150 467 1150 c 0
 374 1150 240 1093 240 988 c 0
 240 944 256 905 287 873 c 0
 344 814 426 756 488 705 c 0
 541 662 566 606 566 535 c 2
 566 525 l 2
 566 478 565 471 538 434 c 1
 501 443 l 1
 520 480 529 511 529 544 c 0
 529 627 411 696 346 743 c 0
 249 816 202 898 202 991 c 0
 202 1050 229 1100 283 1148 c 0
 339 1196 393 1220 450 1220 c 0
 505 1220 567 1211 631 1194 c 1
EndSplineSet
EndChar

StartChar: exclam.fa
Encoding: 65671 -1 372
Width: 609
VWidth: 1524
GlyphClass: 2
Flags: HMW
LayerCount: 2
Back
Fore
SplineSet
293 463 m 1
 293 1174 l 1
 355 1174 l 1
 355 463 l 1
 293 463 l 1
277 86 m 1
 277 206 l 1
 355 206 l 1
 355 86 l 1
 277 86 l 1
EndSplineSet
EndChar

StartChar: uni066D
Encoding: 1645 1645 378
Width: 969
VWidth: 1524
GlyphClass: 2
Flags: HMW
LayerCount: 2
Back
Fore
SplineSet
496 475 m 1
 327 226 l 2
 316 209 308 206 304 206 c 0
 294 206 273 229 273 246 c 0
 273 255 275 255 279 259 c 2
 447 505 l 1
 174 595 l 2
 157 602 153 610 153 624 c 0
 153 647 159 652 182 652 c 2
 185 652 l 1
 465 563 l 1
 465 850 l 2
 465 878 483 900 495 900 c 0
 509 900 525 881 525 850 c 2
 525 563 l 1
 803 651 l 2
 806 651 808 652 813 652 c 0
 823 652 837 639 837 615 c 0
 837 606 835 601 818 597 c 1
 817 597 l 1
 543 505 l 1
 712 261 l 2
 716 257 719 253 719 247 c 0
 719 234 694 207 686 207 c 0
 681 207 673 208 663 225 c 2
 496 475 l 1
EndSplineSet
EndChar

StartChar: D3bs
Encoding: 65682 -1 379
Width: 1139
VWidth: 1524
GlyphClass: 5
Flags: HMW
LayerCount: 2
Back
Fore
SplineSet
567 -118 m 1
 567 -57 l 1
 627 -57 l 1
 627 -118 l 1
 567 -118 l 1
676 135 m 1
 676 196 l 1
 736 196 l 1
 736 135 l 1
 676 135 l 1
457 135 m 1
 457 196 l 1
 519 196 l 1
 519 135 l 1
 457 135 l 1
EndSplineSet
EndChar
